<svg xmlns="http://www.w3.org/2000/svg"><style>:root svg:not(:target){display:none}</style><svg id="academy-logo-img-mobile" viewBox="0 0 27 34"><path d="M13.643.016 13.5 0 0 1.407v24.606L13.5 34 27 26.013V1.407L13.643.016Zm11.591 25L13.5 31.956 1.766 25.015V14.93l11.685 6.916.02 1.253-8.017-4.743-.011 1.225 8.046 4.809.02 1.286-8.045-4.758-.01 1.226L13.5 26.95l8.124-4.833V16.91l3.62-2.15-.01 10.256Zm0-11.564-3.22 1.88-1.482.875-7.065-4.187-.011 1.225 6.04 3.573-.053.031-.13.076-.86.492-4.986-2.948-.011 1.225 3.936 2.328-.933.61-.021.012-2.971-1.742-.011 1.225 1.947 1.135-1.988 1.186-11.618-6.872 11.638-6.958 11.8 6.834Zm0-1.225L13.44 5.31 1.766 12.22V2.99L13.5 1.764 25.234 2.99v9.237Z" fill="#666"></path></svg><svg viewBox="0 0 32 24" id="arrow"><path d="M0 11v2h25v4l7-5-7-5v4z"></path></svg><svg viewBox="0 0 24 24" id="burger"><path stroke="#000" stroke-width="1.5" d="M0 4.25h24m-24 8h24m-24 8h24"></path></svg><svg viewBox="0 0 24 24" id="cross"><path stroke="#000" stroke-width="1.5" d="m3.5 21.5 17-18m-17 0 17 18"></path></svg><svg viewBox="0 0 40 40" id="eat"><path fill="#fff" d="M9.5 5a1 1 0 0 1 1 1v5.5c0 .56.2 1.32.7 1.92.36.42.92.82 1.8.99V6a1 1 0 1 1 2 0v8.41a3.02 3.02 0 0 0 1.8-1c.5-.6.7-1.35.7-1.91V6a1 1 0 1 1 2 0v5.5c0 .94-.3 2.18-1.17 3.2A5.11 5.11 0 0 1 15 16.45V34a1 1 0 1 1-2 0V16.44a5.11 5.11 0 0 1-3.33-1.73A5.07 5.07 0 0 1 8.5 11.5V6a1 1 0 0 1 1-1Zm17.12.08a1 1 0 0 1 1.09.21c.9.91 2.1 2.88 3.06 5.92A42.6 42.6 0 0 1 32.5 24a1 1 0 0 1-1 1H28v9a1 1 0 1 1-2 0V6a1 1 0 0 1 .62-.92ZM28 23h2.5a39.61 39.61 0 0 0-1.64-11.19 22.4 22.4 0 0 0-.86-2.3V23Z"></path></svg><svg viewBox="0 0 20 20" id="email"><path fill="none" stroke="#000" stroke-linecap="round" stroke-linejoin="round" d="M1.5 8.5v8h17v-8m-17-5h17v2l-8.5 6-8.5-6v-2Z"></path></svg><svg fill="none" id="four" viewBox="0 0 121 227"><path d="M66.324 227v-60.76H.524v-31.36L59.604.2h35.28v139.44h25.48v26.6h-25.48V227h-28.56Zm-36.96-87.36h36.96V36.6l-36.96 103.04Z" fill="#F2F2F2"></path></svg><svg viewBox="0 0 60 60" id="htmlacademy"><path d="M30.2 5H30L10.3 7.1v36.2L30 55l19.7-11.7V7.1L30.2 5zm17 36.8L30 52 12.8 41.8V27l17.1 10.2V39l-11.7-7v1.8L30 40.9v1.9l-11.8-7v1.8l11.8 7 11.9-7.1v-7.6l5.3-3.2v15.1zm-.1-17-4.7 2.8-2.2 1.3-10.3-6.1v1.8l8.8 5.3h-.1l-.2.1-1.3.7-7.3-4.3v1.8l5.8 3.4-1.4.9-4.3-2.6v1.8l2.9 1.7-2.9 1.7-17-10.1 17-10.2 17.2 10zm.1-1.8L29.9 12.8 12.8 23V9.4L30 7.6l17.2 1.8V23z"></path></svg><svg viewBox="0 0 40 40" id="leaf"><path fill="#fff" d="M32.84 6.77a.95.95 0 0 0-.9-.77h-.01c-4.94.03-16.95.92-21.8 8.38-2.51 3.88-2.73 8.91-.64 14.96l.07.13a25.93 25.93 0 0 0-1.04 3.32 1 1 0 0 0 .72 1.19l.2.02c.43 0 .81-.32.9-.79.03-.1 2.42-10.37 10.86-16.38.43-.3.55-.92.26-1.38a.9.9 0 0 0-1.3-.28c-4.79 3.4-7.74 8-9.47 11.65-1.24-4.57-.92-8.37.99-11.3 3.74-5.76 12.62-7.15 17.98-7.45-1.16 1.8-2.41 5.1-2.41 10.93 0 3.12-.83 5.52-2.47 7.14-2.62 2.6-6.88 2.83-10 2.58-.51-.04-.96.38-1 .93-.04.55.35 1.03.86 1.07.63.05 1.3.08 1.98.08 3.18 0 6.87-.66 9.43-3.2 2.04-2 3.07-4.9 3.07-8.6 0-9.1 3.22-11.1 3.23-11.1.4-.21.6-.68.5-1.13Z"></path></svg><svg viewBox="0 -9 68 68" id="mass-gain"><circle cx="34" cy="25" r="25" fill="#68B738"></circle><path d="M61.56 13.88a7.6 7.6 0 0 1 2.25-2.3c.5-.35.8-.35 1.1.3.4.95.75 1.95.45 3a1.14 1.14 0 0 0 .2 1.05c.3.4.55.8.8 1.15a3.13 3.13 0 0 1 .45 3.1 2.72 2.72 0 0 0-.1 1.55c.1.5.1 1 0 1.5a1.88 1.88 0 0 1-1.35 1.6 2.6 2.6 0 0 0-1.6 1 .53.53 0 0 1-.45.25c-.6.1-2.1-1.25-2.1-1.85v-.3c.05-1.8-.05-1.95-1.7-2.7a2.2 2.2 0 0 1-.9-.6c-.3-.4-.7-.35-1.15-.2-.45.15-.7.45-.65.95.15 1.2.2 2.43.15 3.65a.94.94 0 0 0 .1.4c1.55 2.25 2.15 4.9 2.9 7.45.6 1.95 1.7 3 3.7 3.15.32.02.64.07.95.15a2.08 2.08 0 0 1 1.7 1.6c.35 1.05.15 1.3-.9 1.3h-3.25a1.62 1.62 0 0 1-1.15-.4 5.86 5.86 0 0 0-1.7-1 3.63 3.63 0 0 1-1.7-1.3 14.3 14.3 0 0 0-2-2.25c-1.4-1.45-2.9-2.85-4.2-4.35a5.69 5.69 0 0 1-1.6-3.8c0-.45-.1-.65-.6-.45a.96.96 0 0 1-.5.15c-1.4 0-2.1.85-2.6 2.1-.45 1.05-1.05 2.05-1.6 3.1a5.2 5.2 0 0 0-.5 2.1c0 1.2.3 1.6 1.4 2 .7.25 1.35.5 1.7 1.2.4.8.3 1-.55 1.05h-3.4a.94.94 0 0 1-.95-.55l-.9-1.5a3.02 3.02 0 0 1-.35-2.7 5.93 5.93 0 0 0 .05-2.65 4.21 4.21 0 0 1 .85-3.5c.3-.35.3-.5-.2-.6a25.03 25.03 0 0 1-5.9-2.05.05.05 0 0 1-.05-.05c-1.6-.6-1.9-.5-2.35 1.15-.4 1.4-.8 2.8-1.1 4.25-.35 1.6.05 3.1.55 4.6.2.6.8.55 1.25.7 1 .3 1.85.7 2.25 1.75.35.8.3.9-.55.9-.85 0-1.7-.05-2.6 0a3.32 3.32 0 0 1-2.1-.7c-2.4-1.6-3.1-4.05-3.3-6.7-.1-1.65-1-2.95-2.05-4.2-.2-.25-.4-.35-.7-.15a22.16 22.16 0 0 1-3.35 1.5 13.36 13.36 0 0 0-6.1 4.4 5.32 5.32 0 0 0-1.1 2.55c-.15.9.1 1.3 1 1.55s1.35.75 1.45 1.7c.05.4-.1.6-.5.6h-4.05a.82.82 0 0 1-.65-.4 4.28 4.28 0 0 1-.95-2.75 25.3 25.3 0 0 1 .45-5.15 3.15 3.15 0 0 1 1.7-2.4c2.95-1.4 4.5-4.05 5.9-6.8.3-.55.05-.65-.45-.6a8.24 8.24 0 0 0-3.85 1.6 35.32 35.32 0 0 0-4.15 3.55 8.34 8.34 0 0 1-5.15 2.45c-3.65.2-5.35-1.85-5.2-5.15a4.84 4.84 0 0 1 1.2-3.05 2.13 2.13 0 0 1 2.25-.75c.75.2.95.6.65 1.35-.15.3-.35.55-.5.85a3.75 3.75 0 0 0-.5 1c-.55 1.5.2 2.55 1.75 2.7 1.65.15 3-.55 4.25-1.55a22.47 22.47 0 0 0 4-4.15 10.4 10.4 0 0 1 7.2-4.05c1.15-.15 2.15-.65 3.25-.95a20.7 20.7 0 0 1 6.35-.9 6.5 6.5 0 0 0 2.9-.55c2.45-1 5-1 7.55-.5 2 .4 4 .9 5.95 1.4a8.29 8.29 0 0 0 3.5-.1 33.9 33.9 0 0 1 6.7-1 9.08 9.08 0 0 1 4.3.85c1 .45 1 .45.75 1.4Z"></path></svg><svg fill="none" id="one" viewBox="0 0 71 227"><path d="M40.372 227V39.4c-.187.187-2.333.747-6.44 1.68-3.92.933-8.4 1.867-13.44 2.8-5.04.933-9.52 1.773-13.44 2.52-3.92.747-5.973 1.12-6.16 1.12V24.84c3.174-.747 6.814-1.773 10.92-3.08A119.738 119.738 0 0 0 24.692 17c4.48-1.867 8.68-4.2 12.6-7 4.107-2.8 7.56-6.067 10.36-9.8h22.68V227h-29.96Z" fill="#F2F2F2"></path></svg><svg viewBox="0 0 30 30" id="plus"><path stroke="#D3D3D3" stroke-width="2" d="M15 0v30m15-15H0" vector-effect="non-scaling-stroke"></path></svg><svg viewBox="0 0 40 40" id="powder"><path fill="#fff" d="M17.6 3.99c-1.75 0-3.18 1.52-3.18 3.4 0 1.89 1.43 3.41 3.19 3.41s3.18-1.52 3.18-3.4c0-1.89-1.42-3.41-3.18-3.41zm0 1.34c1.07 0 1.94.92 1.94 2.07 0 1.14-.87 2.06-1.93 2.06-1.07 0-1.94-.92-1.94-2.06 0-1.15.87-2.07 1.94-2.07zM6.95 11.5c-.53 0-.58.6-.59.78v18.54c.35 2.41 1.4 3.94 3.93 4.19h20.58c2.36-.55 3.54-1.68 3.79-4.2V12.17c0-.58-.38-.65-.53-.66h-.5c-.5 0-.54.56-.54.68v18.66c-.32 1.54-.8 2.2-2.44 2.5 0 0-20.18 0-20.66-.04-1.47-.5-1.96-1.2-2.06-2.85V12.3c0-.83-.67-.8-.67-.8h-.3zM26 13.62c-.92-.02-1.5.14-1.5.14-1.2.27-2.35.42-4.66 2.6-2.3 2.17-4.02 2.07-5.74 1.96-1.71-.1-3.45-1.67-3.82-2.07-.37-.4-1.03-.13-1.2.13-.17.26-.17.71.12 1.13 1.4 1.28 2.72 2.3 5.25 2.54 2.52.24 4.9-.89 6.5-2.49 1.59-1.6 2.42-1.91 3.55-2.15 2.9-.45 4.56.69 5.62 1.45 1.07 1.18 1.37.86 1.71.52.61-.79-.25-1.36-1.15-2.12A8 8 0 0 0 26 13.62zm-11.77 8c-1.3 0-2.35 1.11-2.35 2.5 0 1.38 1.05 2.5 2.35 2.5 1.29 0 2.34-1.12 2.34-2.5 0-1.39-1.05-2.5-2.34-2.5zm12.55.85c-1.71 0-3.1 1.48-3.1 3.3 0 1.83 1.39 3.3 3.1 3.3 1.7 0 3.09-1.47 3.09-3.3 0-1.82-1.39-3.3-3.1-3.3zm0 1.6c.88 0 1.6.76 1.6 1.7 0 .95-.72 1.72-1.6 1.72-.89 0-1.6-.77-1.6-1.71 0-.95.71-1.72 1.6-1.72z"></path></svg><svg viewBox="0 0 78 80" id="present"><path fill="#fff" d="m54.23 21.34-1.16-2.13a5.38 5.38 0 0 0-1.03-9.92 5.43 5.43 0 0 0-4.14.43c-4.98 2.68-7.91 10.82-7.94 10.9l-2.3-.8c.13-.37 3.27-9.1 9.08-12.23a7.86 7.86 0 0 1 11.29 9.1c-.6 2-1.95 3.66-3.8 4.65Zm7.72 29.59H16.09c-.67 0-1.22-.54-1.22-1.21 0-.67.55-1.21 1.22-1.21h45.86c.67 0 1.22.54 1.22 1.21 0 .67-.55 1.21-1.22 1.21ZM39.02 67.15c-.67 0-1.22-.54-1.22-1.21V33.5c0-.67.55-1.2 1.22-1.2.68 0 1.22.53 1.22 1.2v32.44c0 .67-.54 1.2-1.22 1.2ZM23.81 21.34a7.8 7.8 0 0 1-3.17-10.6A7.9 7.9 0 0 1 31.3 7.6c5.82 3.13 8.96 11.86 9.09 12.23l-2.3.8c-.03-.08-2.96-8.22-7.95-10.9a5.46 5.46 0 0 0-7.36 2.17 5.39 5.39 0 0 0 2.2 7.32l-1.17 2.13Zm33.23 45.81H21a6.11 6.11 0 0 1-6.13-6.09V33.5c0-.67.55-1.2 1.22-1.2.68 0 1.22.53 1.22 1.2v27.56A3.68 3.68 0 0 0 21 64.73h36.04a3.68 3.68 0 0 0 3.7-3.67V33.5a1.22 1.22 0 0 1 2.44 0v27.56a6.11 6.11 0 0 1-6.14 6.09Zm6.98-32.44H14.03a3.17 3.17 0 0 1-3.18-3.16v-9.47a3.17 3.17 0 0 1 3.18-3.16h49.98a3.17 3.17 0 0 1 3.19 3.16v9.47a3.17 3.17 0 0 1-3.18 3.16ZM14.03 21.35c-.4 0-.74.33-.74.73v9.47c0 .41.33.74.74.74h49.98c.41 0 .75-.33.75-.74v-9.47c0-.4-.34-.73-.75-.73H14.03Z"></path></svg><svg viewBox="0 0 40 40" id="slider-button-mobile"><path fill="#666" d="m16 11-8 9 8 9V11Zm16 9-8-9v18l8-9Z"></path></svg><svg viewBox="0 0 20 20" id="tel"><path d="M10 10h8.5m0 0L16 7.5m2.5 2.5L16 12.5m-7.5-10v5h-3v5h3v5H6c-1.5 0-2.5-1-2.5-2.5V5c0-1.5 1-2.5 2.5-2.5z" fill="none" stroke="#000" stroke-linecap="round" stroke-linejoin="round"></path></svg><svg viewBox="0 0 29 22" id="telegram"><path fill="#666" d="M23.96 3.15c.18.15.27.38.23.61l-2.63 15.76a.66.66 0 0 1-1.01.44l-7.88-5.25a.66.66 0 0 1-.15-.96l2.61-3.26-4.36 2.9a.66.66 0 0 1-.65.05L4.86 10.8a.66.66 0 0 1 .08-1.2l18.38-6.57a.66.66 0 0 1 .64.11ZM6.83 10.32l3.53 1.77 7.56-5.04a.66.66 0 0 1 .88.96L14 14l6.43 4.3 2.28-13.66-15.88 5.67Z"></path></svg><svg fill="none" id="three" viewBox="0 0 112 232"><path d="M55.921 231.52c-12.32 0-22.586-2.333-30.8-7-8.213-4.667-14.373-11.387-18.48-20.16-4.106-8.773-6.16-19.133-6.16-31.08v-7.56h29.68v5.04c.187 6.72.934 12.787 2.24 18.2 1.494 5.413 4.014 9.707 7.56 12.88 3.734 3.173 9.054 4.76 15.96 4.76 7.28 0 12.787-1.68 16.52-5.04 3.734-3.547 6.254-8.493 7.56-14.84 1.307-6.347 1.96-13.627 1.96-21.84 0-11.947-2.24-21.653-6.72-29.12-4.293-7.653-11.946-11.853-22.96-12.6-.56-.187-1.306-.28-2.24-.28h-1.96V92.92h3.92c10.64-.373 18.294-3.173 22.96-8.4 4.667-5.227 7-13.907 7-26.04 0-10.267-1.773-18.48-5.32-24.64-3.36-6.16-10.173-9.24-20.44-9.24-10.266 0-17.08 3.453-20.44 10.36-3.36 6.72-5.226 15.4-5.6 26.04v4.76H.481V58.2c0-12.133 2.054-22.493 6.16-31.08 4.107-8.587 10.267-15.213 18.48-19.88 8.4-4.667 18.76-7 31.08-7 12.507 0 22.867 2.333 31.08 7 8.214 4.667 14.374 11.387 18.48 20.16 4.107 8.587 6.16 18.947 6.16 31.08 0 13.627-2.986 24.547-8.96 32.76-5.786 8.213-13.626 13.813-23.52 16.8 6.907 2.053 12.694 5.6 17.36 10.64 4.854 5.04 8.587 11.48 11.2 19.32 2.614 7.653 3.92 16.613 3.92 26.88 0 13.44-1.866 25.2-5.6 35.28-3.733 9.893-9.706 17.64-17.92 23.24-8.213 5.413-19.04 8.12-32.48 8.12Z" fill="#F2F2F2"></path></svg><svg fill="none" viewBox="0 0 40 40" id="thumb"><rect width="38" height="38" x="1" y="1" fill="#fff" rx="19"></rect><path fill="#666" d="m16 11-8 9 8 9V11Zm16 9-8-9v18l8-9Z"></path><rect width="38" height="38" x="1" y="1" stroke="#666" stroke-width="2" rx="19"></rect></svg><svg viewBox="0 0 30 30" id="tick-radio"><circle cx="15" cy="15" r="6.5" fill="#68B738"></circle></svg><svg viewBox="0 0 30 30" id="tick"><path fill="#68B738" d="m13 19.72-5.7-6.45-1.05 1.19L13 22.09 24.25 9.37 23.2 8.09 13 19.72Z"></path></svg><svg viewBox="0 0 40 40" id="time"><path fill="#fff" d="M12.75 5c-1 0-1 1.5 0 1.5H19v1.52c-6.4.41-11.46 5.9-11.46 12.6 0 3.8 1.64 7.23 4.23 9.54.45.4.51 1.11.1 1.55l-1.44 1.47c-.7.65.34 1.66.97.95l1.88-1.93c.33-.32.82-.4 1.23-.2a11.88 11.88 0 0 0 10.41.06c.4-.2.9-.12 1.22.2l1.82 1.87c.64.6 1.56-.3.98-.95l-1.36-1.4c-.42-.43-.36-1.14.1-1.55A12.75 12.75 0 0 0 32 20.61c0-6.7-5.09-12.2-11.5-12.59V6.5h6.25c1 0 1-1.5 0-1.5h-14ZM8.89 20.61c0-6.19 4.87-11.2 10.88-11.2 6 0 10.87 5.01 10.87 11.2 0 6.2-4.87 11.22-10.87 11.22-6 0-10.88-5.02-10.88-11.22Zm10.12-7.67c0-1.04 1.56-1.04 1.56 0v8.18a.8.8 0 0 1-.8.8.76.76 0 0 1-.76-.75v-8.23Zm-4.68 2.48a1.09 1.09 0 1 0 0-2.18 1.09 1.09 0 0 0 0 2.17v.01Zm10.87 0a1.09 1.09 0 1 0 0-2.18 1.09 1.09 0 0 0 0 2.17v.01Zm-9.78 11.93c0 1.45-2.18 1.45-2.18 0s2.18-1.45 2.18 0Zm4.35 3.26a1.1 1.1 0 1 0 .2-2.17 1.1 1.1 0 0 0-.2 2.17Zm-7.61-9.84a1.1 1.1 0 1 1-2.17.2 1.1 1.1 0 0 1 2.17-.2Zm16.3 1.09a1.1 1.1 0 1 0 .2-2.17 1.1 1.1 0 0 0-.2 2.17Zm-2.17 5.5c0 1.44-2.18 1.44-2.18-.01s2.18-1.45 2.18 0v.01Z"></path></svg><svg fill="none" id="two" viewBox="0 0 113 229"><path d="M.625 229v-21.28l57.68-89.88c4.293-6.72 8.213-12.973 11.76-18.76 3.733-5.787 6.72-11.853 8.96-18.2 2.426-6.533 3.64-14 3.64-22.4 0-10.453-1.68-18.667-5.04-24.64-3.36-5.973-9.24-8.96-17.64-8.96-7.094 0-12.6 1.96-16.52 5.88s-6.627 9.053-8.12 15.4c-1.494 6.347-2.24 13.16-2.24 20.44v7.56H3.145v-7.84c0-13.627 1.773-25.293 5.32-35 3.733-9.893 9.613-17.547 17.64-22.96C34.318 2.947 45.145.24 58.584.24c18.293 0 31.92 5.227 40.88 15.68 8.96 10.267 13.44 24.547 13.44 42.84 0 9.707-1.214 18.2-3.64 25.48-2.24 7.28-5.227 14.093-8.96 20.44-3.734 6.347-7.84 12.88-12.32 19.6l-52.08 79.52h71.68V229H.625Z" fill="#F2F2F2"></path></svg><svg viewBox="0 0 29 22" id="vk"><path d="M1.5 5.34c0-.86.52-1.32 1.54-1.38l3.98.02a.52.52 0 0 1 .53.38c.4 1.26.86 2.34 1.37 3.26.5.9 1.17 1.96 1.99 3.15.07.15.18.23.34.23.13 0 .22-.06.3-.18l.07-.28.03-4.35c0-.3-.07-.5-.23-.6a2.1 2.1 0 0 0-.84-.23c-.32-.05-.48-.23-.48-.55 0-.07.01-.12.03-.15.37-1.09 1.44-1.63 3.2-1.63l1.5-.03c.67 0 1.23.16 1.67.48.44.32.67.82.67 1.5v5.71c.12.09.24.13.34.13.27 0 .5-.15.7-.45 1.95-2.58 3-4.31 3.17-5.18a.3.3 0 0 1 .05-.13c.12-.25.33-.47.61-.65.29-.19.53-.31.75-.38a.55.55 0 0 1 .24-.05h4.13l.26.03c.36 0 .63.16.83.47.07.1.12.21.15.33a2.36 2.36 0 0 1 .06.55v.18a6.11 6.11 0 0 1-.94 2.2 23.4 23.4 0 0 1-1.93 2.53c-.79.9-1.27 1.5-1.47 1.78a.93.93 0 0 0-.24.56c0 .13.07.28.21.45l3.9 4.63c.2.26.31.56.31.88 0 .38-.16.7-.48.95-.32.25-.7.4-1.14.43l-.46.03h-4.05a.85.85 0 0 0-.1 0 .86.86 0 0 1-.1.02c-.4 0-.76-.16-1.1-.48-.13-.13-.96-1.12-2.5-2.97a1.39 1.39 0 0 0-.38-.32 43.69 43.69 0 0 0-.53 2.24l-.08.42a1.4 1.4 0 0 1-1.12 1.06l-.37.02h-2.61c-1.48 0-2.95-.63-4.41-1.9a19.33 19.33 0 0 1-3.96-4.95 47.61 47.61 0 0 1-3.28-7.05 1.92 1.92 0 0 1-.13-.73Zm16.01 6.51c-.37 0-.7-.1-1.01-.29a.9.9 0 0 1-.45-.79V5c0-.34-.1-.58-.27-.72-.18-.14-.49-.21-.93-.21l-1.52.05c-.76 0-1.34.12-1.73.37.78.36 1.17.93 1.17 1.71v4.43a1.5 1.5 0 0 1-.53 1.04 1.59 1.59 0 0 1-1.07.42c-.53 0-.94-.24-1.22-.73a26.08 26.08 0 0 1-3.1-5.63l-.23-.66-3.55-.02c-.23 0-.36.01-.38.03-.03.03-.04.1-.04.22 0 .15.01.3.05.48l.56 1.4c1.49 3.64 3.11 6.51 4.86 8.6 1.75 2.1 3.47 3.15 5.16 3.15h2.66c.1 0 .19-.03.24-.09.05-.06.1-.17.13-.34l.06-.25.5-2.21a2 2 0 0 1 .38-.6.97.97 0 0 1 .69-.28c.42 0 .86.24 1.3.73l2.27 2.71c.14.22.3.33.45.33h4.4c.53 0 .8-.13.8-.38a.47.47 0 0 0-.08-.25l-3.87-4.55c-.3-.35-.45-.73-.45-1.13 0-.4.14-.8.43-1.16.23-.34.68-.9 1.34-1.67a37.63 37.63 0 0 0 1.75-2.19c.5-.68.82-1.3.98-1.85l.08-.33a.37.37 0 0 1-.02-.16.57.57 0 0 0-.03-.19h-4.18c-.27.1-.48.25-.64.45L22.3 6c-.45 1.16-1.6 2.94-3.5 5.36a1.9 1.9 0 0 1-1.3.5Z"></path></svg><svg viewBox="-9 -6 68 68" id="weight-loss"><circle cx="25" cy="28" r="25" fill="#68B738"></circle><path d="M35.2 0H35c-.32.19-.58.47-.74.82a8.03 8.03 0 0 0-.67 1.76.84.84 0 0 1-.76.69 3.77 3.77 0 0 0-2.69 1.95 14.2 14.2 0 0 0-.95 2.06c-.73 1.9-1.29 3.85-1.98 5.77-.32.87-.34.87-1.32.87-1.16 0-1.08-.18-1.1 1.1 0 .41.13.62.56.6.13 0 .33-.07.38.1.06.18-.12.26-.22.36a4.63 4.63 0 0 1-2.23 1.26c-.98.26-1.97.47-2.92.79-2.45.82-4.7 1.96-6.46 3.9a14.44 14.44 0 0 0-2.44 4.04c-1.89 4.46-2.8 9.15-3.51 13.88a97.06 97.06 0 0 0-.75 6.7C7.1 47.75 7 48.88 7 50h17.14a1.13 1.13 0 0 0-.12-.66 2.58 2.58 0 0 0-1.97-1.58c-.36-.08-.4-.2-.18-.48.36-.48.64-1.02.82-1.6.84-2.47 1.16-5.06 1.57-7.62a15.5 15.5 0 0 1 1.77-5.59 11.13 11.13 0 0 1 2.87-3.28c.43-.32.45-.32.52.23.05.36.06.74.09 1.11a48.17 48.17 0 0 1-.1 7.31 31.87 31.87 0 0 0-.07 5.67A38.83 38.83 0 0 0 30.5 50h6.84a2.79 2.79 0 0 0-2.18-2.29 4.62 4.62 0 0 0-1.93.1c-.31.08-.44 0-.46-.33a29.11 29.11 0 0 1 .51-8.15 91.8 91.8 0 0 0 1.57-9.38 9.16 9.16 0 0 1 1.18-3.6c.6-1.1 1.14-2.23 1.75-3.33a3.03 3.03 0 0 0 .21-2.67c-.14-.37-.27-.74-.44-1.1-.52-1-1.03-2-1.5-3-.25-.52-.2-.59.36-.6.84 0 .84 0 .86-.85v-.34c0-.35-.14-.55-.52-.51h-.78c-.35 0-.46-.15-.37-.52a3.22 3.22 0 0 1 2.64-2.28 11.3 11.3 0 0 1 3.4.22.51.51 0 0 0 .65-.33c.2-.51.43-1.03.66-1.55a.52.52 0 0 0-.05-.58c-1.65-2.1-3.43-4.05-5.87-5.3a.77.77 0 0 1-.45-.58A10.12 10.12 0 0 0 35.93.9a1.8 1.8 0 0 0-.73-.9Z"></path></svg><svg viewBox="0 0 29 22" id="youtube"><path fill="#666" d="m18.35 10.8-5.24-3.5a.65.65 0 0 0-1.01.55v6.98a.65.65 0 0 0 1.01.54l5.24-3.49a.65.65 0 0 0 0-1.09Zm-4.94 2.8V9.08l3.4 2.27-3.4 2.27Zm12.48-8.56a2.4 2.4 0 0 0-1.45-1.63C20.72 1.98 14.75 2 14.5 2s-6.22-.02-9.94 1.4a2.4 2.4 0 0 0-1.45 1.64 25.32 25.32 0 0 0-.61 6.3c0 3.26.33 5.22.61 6.3a2.4 2.4 0 0 0 1.45 1.63c3.72 1.43 9.69 1.4 9.94 1.4h.08c.75 0 6.31-.04 9.86-1.4a2.4 2.4 0 0 0 1.45-1.64c.28-1.07.61-3.03.61-6.3 0-3.25-.33-5.22-.61-6.29Zm-1.27 12.27a1.1 1.1 0 0 1-.65.74c-3.5 1.34-9.4 1.32-9.47 1.32-.07 0-5.98.02-9.47-1.32a1.09 1.09 0 0 1-.65-.74c-.27-1-.57-2.85-.57-5.97 0-3.12.3-4.97.57-5.97a1.1 1.1 0 0 1 .65-.74c3.5-1.34 9.4-1.32 9.47-1.32.07 0 5.98-.02 9.47 1.32a1.1 1.1 0 0 1 .65.74c.27 1 .57 2.85.57 5.97 0 3.12-.3 4.96-.57 5.97Z"></path></svg></svg>