<svg xmlns="http://www.w3.org/2000/svg">
	<style>:root svg:not(:target) { display: none }</style>

	<svg id="img-mobile" viewBox="0 0 34 38"><path fill="#FDC305" d="M6.07 20.72v-2.26a143.26 143.26 0 0 1 20.17-1.33c0 .6 0 1.21-.06 1.82a25.52 25.52 0 0 1 6-1.82A16.67 16.67 0 0 0 .19 20.39l5.88.33Zm21.17 3.51c-1.16 1.28-1.39 1.2-1.39 3.45v9.18A16.64 16.64 0 0 0 33.32 23a17.3 17.3 0 0 0-.32-3.1 33.1 33.1 0 0 0-5.76 4.33ZM6.36 25.72s-3.79-1.44-5.19-1.83A8.54 8.54 0 0 0 0 23.61a16.65 16.65 0 0 0 8.68 14L6.36 25.72Z"/><path fill="#F06351" d="M26.29 17.12A89.8 89.8 0 0 0 24.89.65S24.75-.64 24 .41a14.22 14.22 0 0 0-1.2 3.94 70.34 70.34 0 0 0-12.77.34C9.24 2 7.85.75 7.18 1c-.67.25-.72 3.31-.72 3.31l-.33 14.1a143.21 143.21 0 0 1 20.16-1.29Z"/><path d="M12.41 14c0-.09 1 .68 1.41.92.41.24.61.42.61.59 0 .17-.27.34-.63.34s-.91-.12-1-.27h1.23A8.34 8.34 0 0 1 12.41 14Zm7.48.11-1.09 1.33c0 .06-.17.35.18.3a7.35 7.35 0 0 0 1.22-.29c.11 0 .07-.19-.11-.17-.18.02-.69.05-1 .11l.84-1.26s.07-.13-.04-.02Zm-3.14 6.09a2.3 2.3 0 0 0 1.09-1c.28-.65 0-.91-.44-1a2.43 2.43 0 0 0-1.74.34c-.39.36-.34.72-.05 1a5.34 5.34 0 0 0 1.14.66Z"/><path fill="#F06351" d="M16.35 21.45a1.92 1.92 0 0 1-.46.6 1.73 1.73 0 0 1-1 .38 2.15 2.15 0 0 1-1.47-.43 2.3 2.3 0 0 1-.53-.44c-.1-.11-.22-.2-.36-.26 0 0 .75 4.1 2.57 4.75 1.82.65 2.14-.75 2.2-1.13a5.61 5.61 0 0 0-.82-3.23c-.02-.31-.03-.11-.13-.24Z"/><path d="M14.71 22.59a3.44 3.44 0 0 1-2.36-1.47.14.14 0 0 1 .03-.15.14.14 0 0 1 .2 0 3.26 3.26 0 0 0 2.11 1.3 2.09 2.09 0 0 0 1.63-1l.14-.19.1.21s.37.76 1 .8c.63.04 1.05-.41 1.61-1.28a.14.14 0 0 1 .2 0 .15.15 0 0 1 .05.2c-.64 1-1.27 1.44-1.88 1.4a1.55 1.55 0 0 1-1.12-.76 2.26 2.26 0 0 1-1.71.94Z"/><path fill="#F06351" d="M26.24 18.92a58.63 58.63 0 0 0-5.07 5.19A31.63 31.63 0 0 1 15.88 29c-.22-.53-1.62-1.51-1.62-1.51s-3.13-2.14-5.18-3.82a34.14 34.14 0 0 1-3.13-3l-2-.11a22.57 22.57 0 0 0 12 8.8c.86-.14 3.27-1.86 5.07-3.26a58.13 58.13 0 0 0 5.94-5.89 6.15 6.15 0 0 0 1.14-2c-1.1.39-1.86.71-1.86.71Z"/></svg>

	<svg id="img-tablet" viewBox="0 0 61 51"><path fill="#FDC305" d="M51.58 19.85a22.23 22.23 0 0 0-6.93-9.09 21.96 21.96 0 0 0-10.5-4.4 21.89 21.89 0 0 0-11.29 1.47 22.08 22.08 0 0 0-9.05 6.93 22.35 22.35 0 0 0-4.43 10.57 22.43 22.43 0 0 0 1.37 11.38 22.24 22.24 0 0 0 6.81 9.19 21.96 21.96 0 0 0 10.45 4.54c-.5-1.82-1.01-3.82-1.46-5.95a27.76 27.76 0 0 0 4.1 2.21s.1 1.88.24 3.97c1.54.03 3.08-.1 4.6-.4a1.87 1.87 0 0 1 0-.67c.24-1.62.93-4.55 1.07-6.43a13.21 13.21 0 0 0 2.5-3.23l-.06.39c-.47 3.7-1.46 7.65-2.06 8.75a4.84 4.84 0 0 1-.72 1 22 22 0 0 0 8.57-4.15 22.24 22.24 0 0 0 6.04-7.38 22.45 22.45 0 0 0 .75-18.7Zm-1.26 3.3c-.38.37-1.17.62-1.3-.5-.13-1.14-.16-1.93-.16-1.93s-1.66-2.98-2.28-3.01c-.62-.04-5.02 3.01-6.19 4.34-1 1.12-1.2 1.04-1.2 3.02 0 1.48.19 7.1.08 11.39l-7.02 1.89a54.72 54.72 0 0 1-6.72 1.49l-.86-5.07h-.12l-2.21-11.44s-3.29-1.25-4.5-1.59a3.21 3.21 0 0 0-3.44.55 4.4 4.4 0 0 0-1.1 1.5 4.44 4.44 0 0 0-.39 1.84c.18.4.32.83.42 1.26.04.42-1.04.38-1.73.38s-.8-1.26-.25-2.72c.43-1.13.95-2.22 1.57-3.25a10.31 10.31 0 0 1 1.78-2.51s.12-.3 1.08-.21c.96.08 6.27.37 6.27.37l.04-1.97a121.95 121.95 0 0 1 17.44-1.17v1.6a19.27 19.27 0 0 1 7.01-1.74.78.78 0 0 1 .67.33c.29.38 2.07 2.61 2.28 2.93.58.84 1.1 1.7 1.57 2.61a5.44 5.44 0 0 1-.75 1.6Z"/><path fill="#F06351" d="m48.64 17.83.86 1.12c.58.83 1.1 1.7 1.57 2.6a5.44 5.44 0 0 1-.74 1.55c-.38.38-1.16.63-1.29-.5-.13-1.13-.18-1.88-.18-1.88s-1.66-2.98-2.28-3.01c-.62-.04-5.02 3.01-6.19 4.34-1 1.12-1.2 1.04-1.2 3.02 0 1.3.14 5.78.1 9.75 1.57.18 3.86.61 4.55 1.64 0 0-.25-6.24 6.73-2.97 0 0 .24-8.5 9.87-6.33a37.71 37.71 0 0 0-11.8-9.33Zm-9.08-2.02a79.27 79.27 0 0 0-1.2-14.36s-.13-1.13-.75-.2a12.47 12.47 0 0 0-1.03 3.47 60.54 60.54 0 0 0-11.05.3c-.7-2.4-1.9-3.48-2.49-3.2-.57.3-.64 2.85-.64 2.85l-.29 12.3a121.96 121.96 0 0 1 17.46-1.16Z"/><path fill="#E55645" d="M39.06 39.94c.12-.93.18-2.16.21-3.52l-7.02 1.88a54.72 54.72 0 0 1-6.72 1.54l.96 4.34c0 .1 0 .2.06.29a27.76 27.76 0 0 0 4.1 2.22 36.48 36.48 0 0 0 5.93-3.6v.06a13.21 13.21 0 0 0 2.49-3.2Z"/><path d="M27.57 13.1c-.05-.1.86.58 1.21.8.35.2.53.36.53.5 0 .15-.23.3-.54.3-.3 0-.8-.1-.86-.22-.07-.13.52 0 .81 0h.25a6.99 6.99 0 0 1-1.4-1.39Zm6.46.09s-.86 1.11-.94 1.16c-.08.06-.15.3.16.26a6.91 6.91 0 0 0 1.05-.25c.1-.05.06-.17-.1-.15a6.7 6.7 0 0 0-.86.1l.73-1.11s.03-.1-.04-.01Zm-2.7 5.3c.4-.17.72-.47.93-.86.24-.57 0-.8-.38-.87a2.1 2.1 0 0 0-1.5.3c-.34.32-.3.63 0 .87.28.23.6.42.94.57Z"/><path fill="#F06351" d="M31.01 19.6a1.78 1.78 0 0 1-.4.51c-.24.2-.54.32-.86.33a1.87 1.87 0 0 1-1.32-.38 1.72 1.72 0 0 1-.46-.39.86.86 0 0 0-.3-.22s.64 3.58 2.2 4.15c1.57.57 1.86-.66 1.9-1a4.92 4.92 0 0 0-.7-2.8c0-.27-.02-.1-.06-.2Z"/><path d="M29.55 20.58a3 3 0 0 1-2.03-1.24.13.13 0 0 1 0-.17.12.12 0 0 1 .09-.04.12.12 0 0 1 .08.04 2.79 2.79 0 0 0 1.82 1.14 1.8 1.8 0 0 0 1.41-.87l.12-.17.1.2s.32.65.85.69c.54.03.92-.37 1.4-1.12a.12.12 0 0 1 .18-.04.13.13 0 0 1 .03.18c-.57.85-1.11 1.26-1.62 1.22a1.33 1.33 0 0 1-.97-.63 1.95 1.95 0 0 1-1.46.81Z"/><path fill="#FDC305" d="M31.23 32.28a3.25 3.25 0 0 0 3.23-3.26c0-1.8-1.44-3.26-3.23-3.26S28 27.22 28 29.02s1.45 3.26 3.23 3.26Z"/><path fill="#111" d="m35.52 26.37-2.7 1.14.99-4.9-6.46 8.49 2.7-1.14-1 4.9 6.47-8.49Zm-6.37 3.33 3.58-4.7-.7 3.47 1.73-.7-3.61 4.7.7-3.47-1.7.7Zm-1.2-1.28a.97.97 0 0 0 .96-.97.97.97 0 0 0-.96-.97.97.97 0 0 0-.97.97c0 .54.43.97.96.97Zm5.61 3.53c.38 0 .68-.3.68-.69a.68.68 0 0 0-.68-.68.68.68 0 0 0-.68.68c0 .38.3.69.68.69Zm.83-1.89a.3.3 0 0 0 .3-.3.3.3 0 0 0-.3-.3.3.3 0 0 0-.3.3c0 .17.13.3.3.3Z"/><path fill="#F06351" d="M39.52 17.39a49.73 49.73 0 0 0-4.38 4.52 27.55 27.55 0 0 1-4.58 4.26c-.19-.46-1.4-1.32-1.4-1.32s-2.7-1.87-4.48-3.34a27.58 27.58 0 0 1-2.7-2.6l-1.73-.1A19.5 19.5 0 0 0 30.6 26.5c.74-.12 2.82-1.62 4.38-2.85a49.88 49.88 0 0 0 5.17-5.13c.43-.52.76-1.1.98-1.74-.98.33-1.6.62-1.6.62Zm-17.18 5.94s-3.29-1.25-4.5-1.59a3.21 3.21 0 0 0-3.44.55 4.4 4.4 0 0 0-1.1 1.5 4.44 4.44 0 0 0-.39 1.84c.19.4.32.83.42 1.26.04.42-1.04.38-1.73.38s-.79-1.26-.25-2.72c.43-1.13.95-2.22 1.57-3.25C8.22 23.76 0 29.46 0 29.46a39.14 39.14 0 0 1 7.05.21c4.53.46 4.31 4.06 4.31 4.06a33.03 33.03 0 0 1 4.85-.96c1.83-.13 1.96 1.84 1.96 1.84l.45 3.35a15.8 15.8 0 0 1 2.29-2.05 5.19 5.19 0 0 1 3.77-1.13l-2.34-11.45Z"/></svg>

	<svg id="img-desktop" viewBox="0 0 71 59"><path fill="#FDC305" d="M59.88 23.8a25.43 25.43 0 0 0-8.05-10.37 25.73 25.73 0 0 0-12.2-5.02 25.8 25.8 0 0 0-13.09 1.67A25.59 25.59 0 0 0 16.03 18a25.3 25.3 0 0 0-5.15 12.06 25.21 25.21 0 0 0 1.6 13 25.42 25.42 0 0 0 7.9 10.48 25.72 25.72 0 0 0 12.13 5.18 113.04 113.04 0 0 1-1.69-6.8 32.41 32.41 0 0 0 4.76 2.54s.12 2.14.28 4.53c1.79.03 3.58-.13 5.33-.47a2.1 2.1 0 0 1 0-.75c.3-1.85 1.1-5.2 1.25-7.35a15.11 15.11 0 0 0 2.9-3.68l-.06.44c-.55 4.22-1.7 8.74-2.4 9.99a5.54 5.54 0 0 1-.83 1.14A25.73 25.73 0 0 0 52 53.58a25.48 25.48 0 0 0 7.02-8.43 25.25 25.25 0 0 0 .87-21.34Zm-1.47 3.77c-.44.42-1.35.71-1.5-.58a34.09 34.09 0 0 1-.19-2.2s-1.93-3.4-2.65-3.43c-.72-.04-5.83 3.44-7.18 4.96-1.17 1.28-1.4 1.19-1.4 3.44 0 1.7.22 8.1.1 13l-8.15 2.16c-2.56.72-5.17 1.3-7.8 1.7l-1-5.78h-.14l-2.57-13.07s-3.8-1.42-5.2-1.81a3.79 3.79 0 0 0-4 .62 5.03 5.03 0 0 0-1.3 1.73 5 5 0 0 0-.44 2.1c.21.45.37.94.48 1.43.05.48-1.2.43-2 .43s-.92-1.43-.29-3.1A22.5 22.5 0 0 1 15 25.44a11.78 11.78 0 0 1 2.07-2.86s.14-.34 1.25-.24c1.11.1 7.28.43 7.28.43l.05-2.26a143.93 143.93 0 0 1 20.24-1.33V21a22.67 22.67 0 0 1 8.14-1.98.92.92 0 0 1 .77.38c.34.43 2.41 2.98 2.65 3.35a27.73 27.73 0 0 1 1.83 2.97 6.17 6.17 0 0 1-.87 1.83Z"/><path fill="#F06351" d="m56.46 21.5 1 1.28a27.74 27.74 0 0 1 1.83 2.97 6.14 6.14 0 0 1-.86 1.77c-.44.42-1.35.71-1.5-.58-.15-1.29-.2-2.14-.2-2.14s-1.94-3.4-2.66-3.44c-.72-.04-5.83 3.44-7.18 4.96-1.17 1.28-1.4 1.19-1.4 3.44 0 1.49.17 6.6.13 11.14 1.81.2 4.47.7 5.27 1.86 0 0-.29-7.12 7.81-3.39 0 0 .28-9.71 11.46-7.22a43.67 43.67 0 0 0-13.7-10.65Zm-10.53-2.3a89.02 89.02 0 0 0-1.4-16.4s-.15-1.3-.87-.24a14.06 14.06 0 0 0-1.2 3.97 71.46 71.46 0 0 0-12.82.33c-.82-2.72-2.22-3.96-2.89-3.64-.67.33-.75 3.26-.75 3.26l-.33 14.04a143.94 143.94 0 0 1 20.26-1.33Z"/><path fill="#E55645" d="M45.35 46.74c.13-1.06.2-2.47.24-4.03l-8.15 2.16a64.43 64.43 0 0 1-7.8 1.75l1.11 4.96c0 .1 0 .22.07.33a32.4 32.4 0 0 0 4.76 2.53 42.48 42.48 0 0 0 6.88-4.1v.06a15.12 15.12 0 0 0 2.9-3.66Z"/><path d="M32 16.09c-.05-.1 1 .67 1.41.91.41.24.61.42.61.59 0 .17-.26.33-.62.33s-.92-.12-1-.25c-.08-.14.6 0 .94 0h.3A8.05 8.05 0 0 1 32 16.09Zm7.5.1s-1 1.28-1.09 1.34c-.09.06-.17.33.2.28a8.15 8.15 0 0 0 1.21-.27c.11-.06.07-.2-.12-.18-.19.02-.68.05-1 .1l.85-1.25s.03-.12-.05-.01Zm-3.14 6.07a2.3 2.3 0 0 0 1.1-1c.27-.65 0-.9-.45-.99a2.5 2.5 0 0 0-1.75.34c-.39.37-.34.73 0 1a5.17 5.17 0 0 0 1.1.65Z"/><path fill="#F06351" d="M36 23.5c-.11.23-.27.44-.46.6-.28.23-.63.36-1 .38a2.2 2.2 0 0 1-1.54-.44 2 2 0 0 1-.53-.44 1 1 0 0 0-.36-.25s.75 4.08 2.57 4.73c1.82.66 2.16-.75 2.21-1.13a5.55 5.55 0 0 0-.82-3.21c0-.3-.02-.1-.07-.23Z"/><path d="M34.3 24.64a3.52 3.52 0 0 1-2.35-1.42.15.15 0 0 1 0-.2.14.14 0 0 1 .16-.03.14.14 0 0 1 .04.03 3.2 3.2 0 0 0 2.11 1.3 2.12 2.12 0 0 0 1.64-.99l.14-.19.1.22s.38.75 1 .8c.62.03 1.06-.42 1.63-1.29a.14.14 0 0 1 .2-.04.14.14 0 0 1 .04.2c-.66.98-1.3 1.44-1.89 1.4a1.56 1.56 0 0 1-1.12-.72 2.25 2.25 0 0 1-1.7.93Z"/><path fill="#FDC305" d="M36.26 37.99c2.07 0 3.75-1.67 3.75-3.72s-1.68-3.72-3.75-3.72a3.73 3.73 0 0 0-3.75 3.72A3.73 3.73 0 0 0 36.26 38Z"/><path fill="#111" d="m41.23 31.25-3.13 1.3 1.15-5.59-7.5 9.68 3.13-1.3-1.15 5.6 7.5-9.7Zm-7.39 3.8L38 29.68l-.8 3.97 2-.82-4.2 5.38.81-3.97-1.97.8Zm-1.4-1.46a1.11 1.11 0 1 0 0-2.22c-.62 0-1.12.5-1.12 1.1 0 .62.5 1.12 1.12 1.12Zm6.52 4.02a.8.8 0 0 0 .8-.78.79.79 0 0 0-.8-.78.79.79 0 0 0-.79.78c0 .43.36.78.8.78Zm.96-2.15c.2 0 .35-.15.35-.35a.35.35 0 0 0-.35-.34.35.35 0 0 0-.35.34c0 .2.16.35.35.35Z"/><path fill="#F06351" d="M45.88 20.99a57.22 57.22 0 0 0-5.09 5.17 31.79 31.79 0 0 1-5.3 4.86c-.23-.53-1.64-1.51-1.64-1.51s-3.14-2.13-5.2-3.81a31.78 31.78 0 0 1-3.14-2.98l-2-.1a22.62 22.62 0 0 0 12 8.76c.86-.14 3.28-1.85 5.1-3.25a57.44 57.44 0 0 0 6-5.86 6.31 6.31 0 0 0 1.13-1.99c-1.14.38-1.86.7-1.86.7Z"/><path fill="#FDC305" d="m65.22 3.47-8.46 9.37-1.22-1.98L63.7 0l1.53 3.47Zm-2.57 13.65 5.54-4.08-.78-3.7-5.4 4.76.64 3.02Zm-2.73 31.85 6.13 3.16 3.01-2.32-6.69-2.73-2.45 1.9ZM1.95 5.92 5.02 2.6l9.29 8.93-1.22 2.26L1.95 5.92Zm5.43 10.23-4.7-3.1-2.4 3.83 5.15 2.38 1.95-3.11Zm6.53 35.98-4.55 3.32 2.8 3.55 4.02-3.99-2.27-2.88Z"/><path fill="#F06351" d="M25.93 27.77s-3.8-1.42-5.2-1.81a3.79 3.79 0 0 0-4 .62 5.03 5.03 0 0 0-1.3 1.73 5 5 0 0 0-.44 2.1c.21.45.37.94.48 1.43.05.48-1.2.43-2 .43s-.92-1.43-.29-3.1c.5-1.3 1.1-2.54 1.82-3.72-5.45 2.82-15 9.33-15 9.33a46.2 46.2 0 0 1 8.19.23c5.25.53 5 4.64 5 4.64a38.92 38.92 0 0 1 5.63-1.1c2.12-.14 2.27 2.1 2.27 2.1l.53 3.83a18.25 18.25 0 0 1 2.65-2.34 6.1 6.1 0 0 1 4.38-1.3l-2.72-13.07Z"/></svg>

	<svg id="text" viewBox="0 0 101 18"><path fill="#111" d="M1.26 16.54A6.86 6.86 0 0 1 0 12.24v-6.4a6.9 6.9 0 0 1 1.19-4.37C2.05.46 3.39 0 5.37 0 7.35 0 8.61.46 9.4 1.3a5.42 5.42 0 0 1 1.19 3.78v1.54H6.72V4.85a3.7 3.7 0 0 0-.24-1.54 1.16 1.16 0 0 0-1.1-.62c-.56 0-.95.16-1.11.54a4.85 4.85 0 0 0-.24 1.7v8.22c-.04.56.07 1.12.32 1.62.15.38.55.54 1.1.54.56 0 .87-.16 1.03-.54.18-.52.26-1.07.24-1.62v-1.84h3.87v1.54a5.77 5.77 0 0 1-1.19 3.84c-.79.93-2.13 1.39-4.03 1.39-1.9-.08-3.32-.54-4.1-1.54ZM15.25.23h4.5l3.33 17.54h-3.64l-.63-3.7h-2.6l-.64 3.7h-3.72L15.25.23Zm3.24 11.54-.95-6.85-.94 6.85h1.9Zm7.35-8.62h-2.68V.23h9.4v2.85h-2.69v14.69h-4.03V3.15ZM39.75.23h6.96v1.85h-4.5v5.77h3.63v1.77H42.2v6.46h4.5v1.77h-7.03V.23h.08Zm9.01 0h1.74l5.14 11.62V.23h2.05v17.54h-1.58l-5.21-12v12h-2.14V.23Zm11.3 0h6.96v1.85h-4.5v5.77h3.63v1.77H62.5v6.46H67v1.77h-6.95V.23Zm9.01 0h3.64c1.43-.1 2.85.28 4.03 1.08C77.6 2 78 3.23 78 4.85c0 2.23-.7 3.61-2.21 4.07l2.53 8.77h-2.45L73.5 9.46h-1.98v8.23H69V.23h.08Zm3.48 7.54c.81.06 1.63-.15 2.3-.62.47-.38.7-1.15.7-2.3a4.85 4.85 0 0 0-.23-1.7 2.04 2.04 0 0 0-.87-.92 3.69 3.69 0 0 0-1.74-.3h-1.1v5.76h.94v.08Zm8.61 8.69a7.61 7.61 0 0 1-1.1-4.46V6.15c-.02-1.11.11-2.22.4-3.3.26-.81.78-1.51 1.5-2 .88-.51 1.9-.75 2.92-.7 1.66 0 2.84.39 3.55 1.23a5.77 5.77 0 0 1 1.11 3.85v.62h-2.37V5.3c0-.65-.05-1.29-.16-1.93-.06-.4-.3-.76-.63-1a2.5 2.5 0 0 0-1.5-.38 2.42 2.42 0 0 0-1.58.46 1.75 1.75 0 0 0-.63 1.23c-.1.69-.16 1.38-.16 2.08v6.54c-.06 1 .1 2 .47 2.92.32.62.95.85 1.9.85a1.96 1.96 0 0 0 1.9-.93c.41-.97.6-2.02.55-3.07v-1.23h-2.3V9.08h4.59v8.69h-1.58l-.24-2c-.2.67-.64 1.25-1.22 1.66-.6.4-1.3.6-2.02.57a4.05 4.05 0 0 1-3.4-1.54Zm13.52-4.84L90.8.3h2.37l2.76 8.46L98.63.3H101l-3.87 11.3v6.16h-2.37v-6.15h-.08Z"/></svg>
</svg>
