<svg xmlns="http://www.w3.org/2000/svg">
	<style>:root svg:not(:target) { display: none }</style>
	<svg id="logo-img-mobile" fill="none" viewBox="0 0 34 38"><g clip-path="url(#a)"><path fill="#FDC305" d="M6.07 20.72v-2.26a143.265 143.265 0 0 1 20.17-1.33c0 .6 0 1.21-.06 1.82a25.518 25.518 0 0 1 6-1.82A16.67 16.67 0 0 0 .19 20.39l5.88.33ZM27.24 24.23c-1.16 1.28-1.39 1.2-1.39 3.45v9.18A16.64 16.64 0 0 0 33.32 23a17.302 17.302 0 0 0-.32-3.1 33.109 33.109 0 0 0-5.76 4.33ZM6.36 25.72s-3.79-1.44-5.19-1.83A8.541 8.541 0 0 0 0 23.61a16.65 16.65 0 0 0 8.68 14L6.36 25.72Z"/><path fill="#F06351" d="M26.29 17.12A89.799 89.799 0 0 0 24.89.65S24.75-.64 24 .41a14.22 14.22 0 0 0-1.2 3.94 70.34 70.34 0 0 0-12.77.34C9.24 2 7.85.75 7.18 1c-.67.25-.72 3.31-.72 3.31l-.33 14.1a143.211 143.211 0 0 1 20.16-1.29Z"/><path fill="#000" d="M12.41 14c0-.09 1 .68 1.41.92.41.24.61.42.61.59 0 .17-.27.34-.63.34s-.91-.12-1-.27h1.23A8.34 8.34 0 0 1 12.41 14ZM19.89 14.11l-1.09 1.33c0 .06-.17.35.18.3a7.351 7.351 0 0 0 1.22-.29c.11 0 .07-.19-.11-.17-.18.02-.69.05-1 .11l.84-1.26s.07-.13-.04-.02ZM16.75 20.2a2.3 2.3 0 0 0 1.09-1c.28-.65 0-.91-.44-1a2.43 2.43 0 0 0-1.74.34c-.39.36-.34.72-.05 1a5.34 5.34 0 0 0 1.14.66Z"/><path fill="#F06351" d="M16.35 21.45a1.92 1.92 0 0 1-.46.6 1.73 1.73 0 0 1-1 .38 2.15 2.15 0 0 1-1.47-.43 2.3 2.3 0 0 1-.53-.44c-.1-.11-.223-.2-.36-.26 0 0 .75 4.1 2.57 4.75 1.82.65 2.14-.75 2.2-1.13a5.61 5.61 0 0 0-.82-3.23c-.02-.31-.03-.11-.13-.24Z"/><path fill="#000" d="M14.71 22.59a3.44 3.44 0 0 1-2.361-1.466.14.14 0 0 1 .031-.154.14.14 0 0 1 .2 0 3.26 3.26 0 0 0 2.11 1.3 2.09 2.09 0 0 0 1.63-1l.14-.19.1.21s.37.76 1 .8c.63.04 1.05-.41 1.61-1.28a.14.14 0 0 1 .2 0 .15.15 0 0 1 .05.2c-.64 1-1.27 1.44-1.88 1.4a1.549 1.549 0 0 1-1.12-.76 2.26 2.26 0 0 1-1.71.94Z"/><path fill="#F06351" d="M26.24 18.92a58.634 58.634 0 0 0-5.07 5.19A31.633 31.633 0 0 1 15.88 29c-.22-.53-1.62-1.51-1.62-1.51s-3.13-2.14-5.18-3.82a34.139 34.139 0 0 1-3.13-3l-2-.11a22.57 22.57 0 0 0 12 8.8c.86-.14 3.27-1.86 5.07-3.26a58.13 58.13 0 0 0 5.94-5.89 6.15 6.15 0 0 0 1.14-2c-1.1.39-1.86.71-1.86.71Z"/></g><defs></defs>
	</svg>
	<svg id="logo-img-tablet" fill="none" viewBox="0 0 61 51"><path fill="#FDC305" d="M51.582 19.854a22.231 22.231 0 0 0-6.936-9.09 21.96 21.96 0 0 0-10.503-4.396A21.887 21.887 0 0 0 22.865 7.83a22.083 22.083 0 0 0-9.058 6.934 22.354 22.354 0 0 0-4.43 10.564 22.432 22.432 0 0 0 1.373 11.386 22.238 22.238 0 0 0 6.813 9.184 21.965 21.965 0 0 0 10.442 4.54c-.5-1.815-1.008-3.822-1.456-5.951a27.756 27.756 0 0 0 4.1 2.215s.104 1.877.241 3.971c1.54.027 3.08-.11 4.592-.408a1.874 1.874 0 0 1 0-.66c.25-1.625.939-4.553 1.077-6.439a13.212 13.212 0 0 0 2.498-3.224l-.052.383c-.474 3.701-1.464 7.655-2.067 8.75a4.845 4.845 0 0 1-.715.999 22.006 22.006 0 0 0 8.563-4.141 22.237 22.237 0 0 0 6.047-7.386 22.45 22.45 0 0 0 .749-18.694Zm-1.266 3.293c-.38.374-1.163.626-1.293-.504-.129-1.13-.163-1.92-.163-1.92s-1.663-2.98-2.283-3.015c-.62-.035-5.022 3.015-6.185 4.344-1.008 1.121-1.206 1.043-1.206 3.015 0 1.486.19 7.1.086 11.392l-7.02 1.886a54.724 54.724 0 0 1-6.72 1.494l-.861-5.066h-.12L22.335 23.33s-3.282-1.252-4.488-1.59a3.213 3.213 0 0 0-3.445.547c-.472.417-.85.931-1.107 1.509a4.437 4.437 0 0 0-.384 1.836c.182.404.321.826.414 1.26.043.417-1.034.374-1.723.374-.69 0-.793-1.251-.25-2.72.424-1.129.948-2.217 1.568-3.25a10.312 10.312 0 0 1 1.783-2.51s.12-.296 1.077-.21c.956.088 6.271.374 6.271.374l.043-1.972a121.95 121.95 0 0 1 17.436-1.165v1.59a19.265 19.265 0 0 1 7.011-1.737.778.778 0 0 1 .664.339c.293.373 2.076 2.607 2.283 2.928.579.835 1.105 1.705 1.576 2.607a5.44 5.44 0 0 1-.75 1.599v.008Z"/><path fill="#F06351" d="M48.636 17.83c.405.52.758.981.862 1.12.579.835 1.105 1.706 1.576 2.607a5.444 5.444 0 0 1-.74 1.547c-.38.373-1.164.625-1.293-.504-.13-1.13-.18-1.877-.18-1.877s-1.663-2.98-2.283-3.015c-.62-.035-5.023 3.015-6.186 4.344-1.008 1.121-1.206 1.043-1.206 3.015 0 1.304.147 5.779.112 9.758 1.56.174 3.851.609 4.54 1.634 0 0-.25-6.239 6.728-2.972 0 0 .241-8.506 9.872-6.325a37.712 37.712 0 0 0-11.802-9.333ZM39.565 15.813A79.266 79.266 0 0 0 38.36 1.45s-.129-1.13-.749-.208a12.474 12.474 0 0 0-1.034 3.475 60.536 60.536 0 0 0-11.043.296c-.707-2.39-1.913-3.476-2.49-3.189-.577.287-.646 2.85-.646 2.85l-.284 12.304a121.956 121.956 0 0 1 17.452-1.165Z"/><path fill="#E55645" d="M39.065 39.943c.112-.93.172-2.163.207-3.527l-7.02 1.885a54.724 54.724 0 0 1-6.72 1.538l.957 4.345c0 .095 0 .19.06.286a27.759 27.759 0 0 0 4.1 2.216 36.485 36.485 0 0 0 5.927-3.589v.053a13.21 13.21 0 0 0 2.49-3.207Z"/><path fill="#000" d="M27.566 13.094c-.043-.087.861.59 1.214.8.353.208.526.364.526.512 0 .148-.224.295-.534.295-.31 0-.793-.104-.862-.226-.069-.121.517 0 .81 0h.25a6.987 6.987 0 0 1-1.404-1.381ZM34.026 13.19s-.861 1.112-.939 1.164c-.077.052-.146.295.164.252a6.911 6.911 0 0 0 1.051-.244c.095-.052.06-.173-.103-.156-.164.017-.586.043-.862.096l.732-1.104s.026-.104-.043-.009ZM31.322 18.498c.399-.177.729-.482.938-.868.242-.574 0-.791-.379-.87a2.095 2.095 0 0 0-1.507.296c-.336.322-.293.634 0 .869.29.23.61.423.948.573Z"/><path fill="#F06351" d="M31.011 19.593a1.78 1.78 0 0 1-.396.522c-.245.199-.547.314-.861.33a1.866 1.866 0 0 1-1.327-.383 1.724 1.724 0 0 1-.456-.39.862.862 0 0 0-.31-.218s.645 3.572 2.213 4.145c1.568.573 1.86-.66 1.904-.99a4.925 4.925 0 0 0-.706-2.816c0-.26-.018-.087-.06-.2Z"/><path fill="#000" d="M29.547 20.584a2.998 2.998 0 0 1-2.024-1.243.131.131 0 0 1 0-.173.122.122 0 0 1 .086-.037.121.121 0 0 1 .086.037 2.785 2.785 0 0 0 1.817 1.138 1.806 1.806 0 0 0 1.413-.87l.12-.164.087.191s.327.66.861.695c.534.035.913-.365 1.404-1.12a.123.123 0 0 1 .172-.035.125.125 0 0 1 .035.173c-.574.852-1.117 1.26-1.628 1.225a1.328 1.328 0 0 1-.965-.634 1.954 1.954 0 0 1-1.464.817Z"/><path fill="#FDC305" d="M31.235 32.28c1.784 0 3.23-1.46 3.23-3.259 0-1.8-1.446-3.258-3.23-3.258s-3.23 1.458-3.23 3.258 1.446 3.258 3.23 3.258Z"/><path fill="#111" d="m35.516 26.37-2.696 1.14.99-4.893-6.46 8.48 2.697-1.138-.991 4.901 6.46-8.49ZM29.151 29.7l3.583-4.701-.698 3.476 1.723-.713-3.61 4.71.699-3.476-1.697.704ZM27.945 28.422a.969.969 0 0 0 .965-.974.969.969 0 0 0-.965-.973.969.969 0 0 0-.965.973c0 .538.432.974.965.974ZM33.561 31.95c.376 0 .68-.308.68-.687a.684.684 0 0 0-.68-.687.684.684 0 0 0-.68.687c0 .379.304.686.68.686ZM34.388 30.064a.303.303 0 0 0 .302-.304.303.303 0 0 0-.302-.305.303.303 0 0 0-.301.305c0 .168.135.304.301.304Z"/><path fill="#F06351" d="M39.522 17.386a49.73 49.73 0 0 0-4.384 4.527 27.555 27.555 0 0 1-4.574 4.258c-.19-.46-1.405-1.32-1.405-1.32s-2.704-1.869-4.48-3.337a27.578 27.578 0 0 1-2.704-2.607l-1.723-.096a19.507 19.507 0 0 0 10.337 7.681c.741-.121 2.826-1.624 4.385-2.85a49.885 49.885 0 0 0 5.169-5.135c.429-.514.761-1.103.982-1.738-.982.33-1.603.617-1.603.617ZM22.337 23.33s-3.282-1.252-4.488-1.59a3.214 3.214 0 0 0-3.446.547c-.472.417-.85.931-1.107 1.509a4.439 4.439 0 0 0-.383 1.836c.182.404.32.826.413 1.26.043.417-1.033.374-1.723.374-.689 0-.792-1.251-.25-2.72.424-1.129.949-2.217 1.568-3.25C8.227 23.764 0 29.464 0 29.464a39.136 39.136 0 0 1 7.055.209c4.523.46 4.307 4.058 4.307 4.058a33.033 33.033 0 0 1 4.85-.965c1.826-.121 1.956 1.842 1.956 1.842l.456 3.354a15.804 15.804 0 0 1 2.283-2.05 5.189 5.189 0 0 1 3.773-1.13L22.337 23.33Z"/>
	</svg>
	<svg id="logo-img-desktop" fill="none" viewBox="0 0 71 59"><path fill="#FDC305" d="M59.883 23.806A25.432 25.432 0 0 0 51.83 13.43a25.725 25.725 0 0 0-12.193-5.02 25.803 25.803 0 0 0-13.093 1.671 25.59 25.59 0 0 0-10.515 7.916 25.296 25.296 0 0 0-5.144 12.06 25.212 25.212 0 0 0 1.595 12.997 25.423 25.423 0 0 0 7.909 10.484 25.719 25.719 0 0 0 12.122 5.184 113.04 113.04 0 0 1-1.69-6.794 32.41 32.41 0 0 0 4.76 2.529s.12 2.142.28 4.533c1.789.03 3.575-.126 5.33-.466a2.104 2.104 0 0 1 0-.754c.29-1.855 1.09-5.198 1.25-7.35a15.114 15.114 0 0 0 2.9-3.68l-.06.436c-.55 4.226-1.7 8.74-2.4 9.989a5.536 5.536 0 0 1-.83 1.14 25.73 25.73 0 0 0 9.941-4.727 25.48 25.48 0 0 0 7.021-8.43 25.252 25.252 0 0 0 .87-21.341Zm-1.47 3.76c-.44.426-1.35.714-1.5-.576a34.09 34.09 0 0 1-.19-2.192s-1.93-3.402-2.65-3.442c-.72-.04-5.831 3.442-7.181 4.96-1.17 1.28-1.4 1.19-1.4 3.442 0 1.696.22 8.104.1 13.004l-8.15 2.153c-2.562.729-5.168 1.299-7.801 1.706l-1-5.783h-.14l-2.57-13.064s-3.81-1.428-5.21-1.815a3.788 3.788 0 0 0-4 .625 5.032 5.032 0 0 0-1.285 1.722 4.995 4.995 0 0 0-.446 2.097c.212.46.373.943.48 1.438.05.476-1.2.426-2 .426s-.92-1.428-.29-3.104c.492-1.29 1.1-2.531 1.82-3.71a11.776 11.776 0 0 1 2.07-2.867s.14-.337 1.25-.238c1.11.1 7.28.427 7.28.427l.05-2.252a143.93 143.93 0 0 1 20.242-1.33v1.816a22.671 22.671 0 0 1 8.14-1.984.916.916 0 0 1 .77.387c.34.427 2.41 2.976 2.65 3.343a27.73 27.73 0 0 1 1.83 2.976 6.167 6.167 0 0 1-.87 1.825v.01Z"/><path fill="#F06351" d="M56.463 21.495c.47.595.88 1.121 1 1.28a27.74 27.74 0 0 1 1.83 2.976c-.19.63-.48 1.226-.86 1.765-.44.427-1.35.714-1.5-.575-.15-1.29-.21-2.143-.21-2.143s-1.93-3.402-2.65-3.442c-.72-.04-5.83 3.442-7.18 4.96-1.17 1.28-1.4 1.19-1.4 3.442 0 1.488.17 6.596.13 11.14 1.81.198 4.47.694 5.27 1.864 0 0-.29-7.122 7.81-3.392 0 0 .28-9.711 11.46-7.221a43.671 43.671 0 0 0-13.7-10.654ZM45.932 19.194a89.015 89.015 0 0 0-1.4-16.397s-.15-1.29-.87-.238a14.057 14.057 0 0 0-1.2 3.968 71.461 71.461 0 0 0-12.82.337c-.82-2.728-2.22-3.968-2.89-3.64-.67.327-.75 3.253-.75 3.253l-.33 14.046a143.942 143.942 0 0 1 20.26-1.33Z"/><path fill="#E55645" d="M45.352 46.74c.13-1.062.2-2.47.24-4.028l-8.15 2.153a64.434 64.434 0 0 1-7.8 1.756l1.11 4.96c0 .108 0 .218.07.327a32.398 32.398 0 0 0 4.76 2.53 42.484 42.484 0 0 0 6.88-4.098v.06a15.115 15.115 0 0 0 2.89-3.66Z"/><path fill="#000" d="M32.002 16.09c-.05-.1 1 .674 1.41.912.41.238.61.416.61.585 0 .169-.26.337-.62.337s-.92-.119-1-.258c-.08-.139.6 0 .94 0h.29a8.052 8.052 0 0 1-1.63-1.577ZM39.502 16.198s-1 1.27-1.09 1.33c-.09.059-.17.337.19.287a8.146 8.146 0 0 0 1.22-.278c.11-.06.07-.198-.12-.178-.19.02-.68.05-1 .109l.85-1.26s.03-.119-.05-.01ZM36.362 22.259a2.293 2.293 0 0 0 1.09-.992c.28-.655 0-.903-.44-.992-.606-.11-1.23.01-1.75.337-.39.367-.34.724 0 .992a5.17 5.17 0 0 0 1.1.655Z"/><path fill="#F06351" d="M36.002 23.509c-.115.225-.271.427-.46.595-.285.227-.635.36-1 .377a2.193 2.193 0 0 1-1.54-.437 1.995 1.995 0 0 1-.53-.446 1.002 1.002 0 0 0-.36-.248s.75 4.077 2.57 4.731c1.82.655 2.16-.753 2.21-1.13a5.55 5.55 0 0 0-.82-3.214c0-.298-.02-.1-.07-.228Z"/><path fill="#000" d="M34.301 24.64a3.518 3.518 0 0 1-2.35-1.419.148.148 0 0 1 0-.198.14.14 0 0 1 .155-.031.14.14 0 0 1 .045.03 3.209 3.209 0 0 0 2.11 1.3 2.121 2.121 0 0 0 1.64-.992l.14-.188.1.218s.38.754 1 .794c.62.04 1.06-.417 1.63-1.28a.144.144 0 0 1 .2-.04.143.143 0 0 1 .04.199c-.666.972-1.296 1.438-1.89 1.398a1.557 1.557 0 0 1-1.12-.724 2.254 2.254 0 0 1-1.7.933Z"/><path fill="#FDC305" d="M36.262 37.99c2.07 0 3.75-1.665 3.75-3.719s-1.68-3.72-3.75-3.72c-2.072 0-3.75 1.666-3.75 3.72 0 2.054 1.678 3.72 3.75 3.72Z"/><path fill="#111" d="m41.232 31.246-3.13 1.3 1.15-5.585-7.5 9.68 3.13-1.298-1.15 5.594 7.5-9.691Zm-7.39 3.799 4.16-5.366-.81 3.967 2-.813-4.19 5.376.81-3.968-1.97.804ZM32.441 33.587c.62 0 1.12-.498 1.12-1.111 0-.614-.5-1.111-1.12-1.111-.618 0-1.12.497-1.12 1.11 0 .614.502 1.112 1.12 1.112ZM38.962 37.614c.436 0 .79-.35.79-.784a.787.787 0 0 0-.79-.783c-.436 0-.79.35-.79.783 0 .433.354.784.79.784ZM39.922 35.462c.193 0 .35-.156.35-.348a.349.349 0 0 0-.35-.347.349.349 0 0 0-.35.347c0 .192.157.348.35.348Z"/><path fill="#F06351" d="M45.882 20.99a57.219 57.219 0 0 0-5.09 5.167 31.79 31.79 0 0 1-5.31 4.86c-.22-.525-1.63-1.507-1.63-1.507s-3.14-2.133-5.2-3.81a31.78 31.78 0 0 1-3.14-2.975l-2-.109a22.62 22.62 0 0 0 12 8.769c.86-.14 3.28-1.855 5.09-3.254a57.44 57.44 0 0 0 6-5.862 6.314 6.314 0 0 0 1.14-1.984c-1.14.377-1.86.704-1.86.704Z"/><path fill="#FDC305" d="m65.223 3.472-8.46 9.364-1.22-1.974L63.693 0l1.53 3.472ZM62.653 17.12l5.54-4.076-.78-3.71-5.4 4.771.64 3.016ZM59.923 48.972l6.13 3.154 3.01-2.321-6.69-2.728-2.45 1.895ZM1.95 5.922l3.07-3.333 9.29 8.927-1.22 2.262L1.95 5.922ZM7.38 16.149l-4.7-3.105-2.4 3.839 5.15 2.38 1.95-3.114ZM13.91 52.126l-4.55 3.323L12.16 59l4.02-3.988-2.27-2.886Z"/><path fill="#F06351" d="M25.931 27.774s-3.81-1.428-5.21-1.815a3.788 3.788 0 0 0-4 .625 5.032 5.032 0 0 0-1.285 1.722 4.994 4.994 0 0 0-.445 2.097c.211.46.372.943.48 1.438.05.476-1.2.426-2 .426s-.92-1.428-.29-3.104c.491-1.29 1.1-2.531 1.82-3.71C9.55 28.27 0 34.777 0 34.777a46.196 46.196 0 0 1 8.19.238c5.25.526 5 4.632 5 4.632a38.924 38.924 0 0 1 5.63-1.1c2.121-.14 2.271 2.102 2.271 2.102l.53 3.83a18.248 18.248 0 0 1 2.65-2.342 6.095 6.095 0 0 1 4.38-1.29l-2.72-13.073Z"/>
	</svg>
	<svg id="logo-text-mobile" viewBox="0 0 101 18" fill="none">
	<g clip-path="url(#clip0_135_3354)">
	<path d="M1.26449 16.5385C0.36955 15.2762 -0.0747041 13.7627 1.02073e-05 12.2308V5.84615C-0.108365 4.29774 0.308071 2.75746 1.18546 1.46154C2.05478 0.461538 3.39829 0 5.37403 0C7.34978 0 8.61425 0.461538 9.40455 1.30769C10.2626 2.37941 10.6846 3.72136 10.59 5.07692V6.61539H6.71754V4.84615C6.74881 4.32289 6.66808 3.799 6.48045 3.30769C6.38016 3.10938 6.2212 2.9448 6.02403 2.83513C5.82686 2.72547 5.60049 2.67572 5.37403 2.69231C4.82082 2.69231 4.42568 2.84615 4.26762 3.23077C4.08883 3.77733 4.00862 4.34988 4.03053 4.92308V13.1538C3.98879 13.71 4.0978 14.267 4.34665 14.7692C4.5047 15.1538 4.89985 15.3077 5.45306 15.3077C6.00627 15.3077 6.32239 15.1538 6.48045 14.7692C6.66013 14.2494 6.74049 13.7019 6.71754 13.1538V11.3077H10.59V12.8462C10.6704 14.2238 10.2508 15.5852 9.40455 16.6923C8.61425 17.6154 7.27075 18.0769 5.37403 18.0769C3.47732 18 2.05478 17.5385 1.26449 16.5385Z" fill="#111111"/>
	<path d="M15.2527 0.23077H19.7574L23.0767 17.7692H19.4413L18.8091 14.0769H16.2011L15.5689 17.7692H11.8545L15.2527 0.23077ZM18.493 11.7692L17.5446 4.92308L16.5963 11.7692H18.493Z" fill="#111111"/>
	<path d="M25.8427 3.15385H23.1557V0.23077H32.5602V3.07692H29.8732V17.7692H25.8427V3.15385Z" fill="#111111"/>
	<path d="M39.752 0.23077H46.7066V2.07692H42.2019V7.84615H45.8372V9.61539H42.2019V16.0769H46.7066V17.8462H39.6729V0.23077H39.752Z" fill="#111111"/>
	<path d="M48.7613 0.23077H50.5L55.6369 11.8462V0.23077H57.6917V17.7692H56.1111L50.8951 5.76923V17.7692H48.7613V0.23077Z" fill="#111111"/>
	<path d="M60.0626 0.23077H67.0172V2.07692H62.5125V7.84615H66.1479V9.61539H62.5125V16.0769H67.0172V17.8462H60.0626V0.23077Z" fill="#111111"/>
	<path d="M69.072 0.23077H72.7074C74.1375 0.134618 75.5587 0.514353 76.7379 1.30769C77.6072 2 78.0024 3.23077 78.0024 4.84616C78.0024 7.07692 77.2911 8.46154 75.7895 8.92308L78.3185 17.6923H75.8686L73.4977 9.46154H71.5219V17.6923H68.993V0.23077H69.072ZM72.5493 7.76923C73.364 7.83458 74.1761 7.61652 74.8412 7.15385C75.3154 6.76923 75.5524 6 75.5524 4.84616C75.5743 4.27296 75.4941 3.7004 75.3154 3.15385C75.1375 2.76166 74.832 2.4373 74.446 2.23077C73.9017 1.98934 73.3042 1.8836 72.7074 1.92308H71.601V7.69231H72.5493V7.76923Z" fill="#111111"/>
	<path d="M81.1635 16.4615C80.342 15.1166 79.9564 13.5617 80.0571 12V6.15384C80.0376 5.03911 80.1705 3.9268 80.4522 2.84615C80.7167 2.03863 81.2437 1.33668 81.9538 0.846152C82.8362 0.337748 83.8542 0.0967294 84.8779 0.153844C86.5375 0.153844 87.723 0.53846 88.4343 1.38461C89.2524 2.50191 89.6438 3.86237 89.5407 5.23077V5.84615H87.1698V5.30769C87.1734 4.66346 87.1205 4.0201 87.0117 3.38461C86.9451 2.98303 86.7178 2.62348 86.3795 2.38461C85.9353 2.10082 85.4081 1.96579 84.8779 2C84.3113 1.96466 83.7504 2.12843 83.2973 2.46154C83.1114 2.61401 82.9595 2.80181 82.8508 3.01344C82.742 3.22507 82.6789 3.45608 82.6651 3.69231C82.5609 4.37999 82.5081 5.07411 82.507 5.76923V12.3077C82.4488 13.3038 82.6105 14.3006 82.9812 15.2308C83.2973 15.8462 83.9296 16.0769 84.8779 16.0769C85.2524 16.1223 85.6322 16.0589 85.9697 15.8947C86.3072 15.7304 86.5873 15.4727 86.7746 15.1538C87.1922 14.1811 87.3812 13.1299 87.3278 12.0769V10.8462H85.036V9.07692H89.6197V17.7692H88.0391L87.802 15.7692C87.5948 16.4395 87.1634 17.0231 86.5763 17.4273C85.9892 17.8315 85.2801 18.0331 84.5618 18C83.9088 18.0374 83.2565 17.9164 82.6633 17.6479C82.0702 17.3794 81.5549 16.9717 81.1635 16.4615Z" fill="#111111"/>
	<path d="M94.6776 11.6154L90.8052 0.30769H93.1761L95.9421 8.76923L98.6291 0.30769H101L97.1275 11.6154V17.7692H94.7566V11.6154H94.6776Z" fill="#111111"/>
	</g>
	<defs>
	<clipPath id="clip0_135_3354">
	<rect width="101" height="18" fill="white"/>
	</clipPath>
	</defs>
	</svg>
	<svg id="logo-text-tablet" fill="none" viewBox="0 0 102 20"><path fill="#111" d="M1.79 17.494a7.25 7.25 0 0 1-1.206-4.51V6.469a7.365 7.365 0 0 1 1.189-4.553C2.57.878 3.935.362 5.864.368c1.93.006 3.236.46 3.92 1.364a5.875 5.875 0 0 1 1.145 3.902v1.53H7.363v-1.66A8.764 8.764 0 0 0 7.251 4.2a1.465 1.465 0 0 0-.405-.825 1.34 1.34 0 0 0-.99-.322 1.248 1.248 0 0 0-1.292.652 4.79 4.79 0 0 0-.293 1.911v8.273c-.04.655.076 1.31.336 1.911a1.265 1.265 0 0 0 1.249.634c.242.035.49-.009.706-.124.216-.115.391-.297.5-.519a5.115 5.115 0 0 0 .267-1.902V12.15h3.566v1.503a6.342 6.342 0 0 1-1.06 4.006c-.758.955-2.067 1.425-3.928 1.425-1.86 0-3.316-.522-4.117-1.59ZM15.788.62h4.083l3.446 18.247h-3.394l-.612-4.031h-2.86l-.689 4.005h-3.445L15.788.621Zm3.144 11.922-1.085-7.334-1.077 7.334h2.162ZM25.962 3.366H23.17V.62h9.234v2.746h-2.757V18.84h-3.695l.009-15.475Z"/><path fill="#444" d="M39.65.62h7.003v1.894h-4.48v6.022h3.636v1.799h-3.635v6.682h4.522v1.824H39.65V.621ZM48.73.62h1.722l5.168 12.104V.62h2.102v18.247h-1.61L50.942 6.424v12.417h-2.136L48.729.621ZM60.505.62h6.994v1.894H63.02v6.022h3.67v1.799h-3.635v6.682h4.496v1.824h-7.046V.621ZM69.576.62h3.635a5.992 5.992 0 0 1 4.023 1.138c.86.756 1.283 1.99 1.283 3.702 0 2.317-.744 3.733-2.231 4.249l2.584 9.132h-2.446l-2.369-8.55H72.1v8.55h-2.524V.621Zm3.445 7.82c.83.081 1.66-.154 2.326-.66a3.111 3.111 0 0 0 .706-2.355 5.124 5.124 0 0 0-.25-1.738 1.645 1.645 0 0 0-.86-.938 4.068 4.068 0 0 0-1.767-.304h-1.11v6.03l.955-.035ZM81.911 17.494a8.093 8.093 0 0 1-1.094-4.648V6.763a11.83 11.83 0 0 1 .431-3.475 3.892 3.892 0 0 1 1.499-2.094 5.056 5.056 0 0 1 2.894-.73c.657-.063 1.32.02 1.941.241a4.525 4.525 0 0 1 1.66 1.045 6.121 6.121 0 0 1 1.102 4.023v.678h-2.368v-.565a10.058 10.058 0 0 0-.156-2.016 1.74 1.74 0 0 0-.654-1.069 2.566 2.566 0 0 0-1.482-.356 2.158 2.158 0 0 0-1.559.486c-.357.342-.59.795-.663 1.286-.11.716-.158 1.44-.147 2.164v6.769a6.577 6.577 0 0 0 .509 3.006 2.441 2.441 0 0 0 1.944.912 2.422 2.422 0 0 0 1.906-.99 7.102 7.102 0 0 0 .525-3.171V11.62h-2.29V9.822h4.565v9.02h-1.56l-.25-2.095a3.206 3.206 0 0 1-1.205 1.725 3.158 3.158 0 0 1-2.007.595 3.982 3.982 0 0 1-1.97-.328 4.02 4.02 0 0 1-1.57-1.245ZM95.711 12.411 91.81.621h2.343l2.765 8.793L99.64.62h2.369l-3.876 11.791v6.43H95.72l-.009-6.43Z"/>
	</svg>
	<svg id="logo-text-desktop" fill="none" viewBox="0 0 118 22"><path fill="#111" d="M1.664 19.661a8.174 8.174 0 0 1-1.4-5.148v-7.44a8.3 8.3 0 0 1 1.38-5.197C2.571.692 4.154.104 6.394.11c2.24.007 3.757.526 4.55 1.557a6.628 6.628 0 0 1 1.33 4.454v1.746h-4.14V5.972a9.842 9.842 0 0 0-.13-1.487 1.661 1.661 0 0 0-.47-.943 1.564 1.564 0 0 0-1.15-.367 1.47 1.47 0 0 0-1.5.744 5.386 5.386 0 0 0-.34 2.182v9.444a4.708 4.708 0 0 0 .39 2.182 1.49 1.49 0 0 0 1.45.724c.282.04.569-.01.82-.142.252-.132.455-.34.58-.592a5.75 5.75 0 0 0 .31-2.172V13.56h4.14v1.716a7.147 7.147 0 0 1-1.23 4.572c-.88 1.092-2.4 1.627-4.56 1.627-2.16 0-3.85-.595-4.78-1.815ZM17.915.398h4.74l4 20.83h-3.94l-.71-4.602h-3.32l-.8 4.573h-4L17.915.398Zm3.65 13.61-1.26-8.373-1.25 8.372h2.51ZM29.726 3.532h-3.24V.398h10.72v3.134h-3.2V21.2h-4.29l.01-17.667Z"/><path fill="#444" d="M45.617.398h8.13V2.56h-5.2v6.874h4.22v2.054h-4.22v7.628h5.25v2.083h-8.18V.398ZM56.157.398h2l6 13.817V.398h2.44v20.83h-1.87l-6-14.204v14.175h-2.48L56.157.398ZM69.828.398h8.12V2.56h-5.2v6.874h4.26v2.054h-4.22v7.628h5.22v2.083h-8.18V.398ZM80.358.398h4.22a7.042 7.042 0 0 1 4.67 1.3c1 .862 1.49 2.27 1.49 4.225 0 2.645-.863 4.262-2.59 4.85l3 10.426h-2.84l-2.75-9.761h-2.27v9.76h-2.93V.399Zm4 8.927a3.893 3.893 0 0 0 2.7-.754 3.533 3.533 0 0 0 .82-2.688 5.76 5.76 0 0 0-.29-1.984 1.872 1.872 0 0 0-1-1.071 4.795 4.795 0 0 0-2.05-.347h-1.29v6.884l1.11-.04ZM94.679 19.661a9.116 9.116 0 0 1-1.27-5.307V7.411c-.035-1.34.134-2.678.5-3.968a4.445 4.445 0 0 1 1.74-2.39 5.948 5.948 0 0 1 3.36-.834 5.298 5.298 0 0 1 4.18 1.468 6.904 6.904 0 0 1 1.28 4.593v.774h-2.75v-.645a11.309 11.309 0 0 0-.18-2.301 1.98 1.98 0 0 0-.76-1.22 3.02 3.02 0 0 0-1.72-.407 2.534 2.534 0 0 0-1.81.555c-.415.39-.686.907-.77 1.468a14.566 14.566 0 0 0-.17 2.47v7.727a7.396 7.396 0 0 0 .59 3.433 2.85 2.85 0 0 0 4.47-.09 7.994 7.994 0 0 0 .61-3.62v-1.468h-2.66v-2.054h5.3V21.2h-1.81l-.29-2.391a3.661 3.661 0 0 1-1.4 1.969c-.677.48-1.498.72-2.33.68a4.694 4.694 0 0 1-2.288-.375 4.655 4.655 0 0 1-1.822-1.42ZM110.699 13.858l-4.53-13.46h2.72l3.21 10.038 3.16-10.038h2.75l-4.5 13.46v7.34h-2.8l-.01-7.34Z"/></svg>
</svg>
