<svg xmlns="http://www.w3.org/2000/svg" viewBox="0 0 40 40"><path fill="#fff" d="M9.5 5a1 1 0 0 1 1 1v5.5c0 .56.2 1.32.7 1.92.36.42.92.82 1.8.99V6a1 1 0 1 1 2 0v8.41a3.02 3.02 0 0 0 1.8-1c.5-.6.7-1.35.7-1.91V6a1 1 0 1 1 2 0v5.5c0 .94-.3 2.18-1.17 3.2A5.11 5.11 0 0 1 15 16.45V34a1 1 0 1 1-2 0V16.44a5.11 5.11 0 0 1-3.33-1.73A5.07 5.07 0 0 1 8.5 11.5V6a1 1 0 0 1 1-1Zm17.12.08a1 1 0 0 1 1.09.21c.9.91 2.1 2.88 3.06 5.92A42.6 42.6 0 0 1 32.5 24a1 1 0 0 1-1 1H28v9a1 1 0 1 1-2 0V6a1 1 0 0 1 .62-.92ZM28 23h2.5a39.61 39.61 0 0 0-1.64-11.19 22.4 22.4 0 0 0-.86-2.3V23Z"/></svg>