<svg xmlns="http://www.w3.org/2000/svg" fill="none" viewBox="0 0 32 37"><path fill="#fff" fill-rule="evenodd" d="M20.617 3.076a1 1 0 0 1 1.09.217c.909.908 2.097 2.878 3.059 5.918C25.737 12.28 26.5 16.508 26.5 22a1 1 0 0 1-1 1H22v9a1 1 0 1 1-2 0V4a1 1 0 0 1 .617-.924ZM22 21h2.491c-.086-4.816-.786-8.512-1.632-11.186-.278-.88-.57-1.643-.859-2.295V21ZM8 3a1 1 0 0 1 1 1v28a1 1 0 1 1-2 0V4a1 1 0 0 1 1-1Z" /><path fill="#fff" fill-rule="evenodd" d="M3.5 3a1 1 0 0 1 1 1v5.5c0 .557.192 1.315.7 1.917.48.566 1.314 1.083 2.8 1.083a1 1 0 1 1 0 2c-2.015 0-3.43-.733-4.326-1.792A5.068 5.068 0 0 1 2.5 9.5V4a1 1 0 0 1 1-1Z" /><path fill="#fff"  d="M12.5 3a1 1 0 0 0-1 1v5.5a3.07 3.07 0 0 1-.7 1.917c-.48.566-1.315 1.083-2.8 1.083a1 1 0 0 0 0 2c2.014 0 3.43-.733 4.326-1.792A5.068 5.068 0 0 0 13.5 9.5V4a1 1 0 0 0-1-1Z"/></svg>
