<svg width="31" height="32" viewBox="0 0 31 32" fill="none" xmlns="http://www.w3.org/2000/svg">
<g clip-path="url(#clip0_130_911)">
<path d="M28.0938 2.767C27.9934 2.317 27.6147 2 27.1825 2C27.1806 2 27.1788 2 27.1769 2C22.2391 2.033 10.2316 2.916 5.38375 10.38C2.86562 14.258 2.64906 19.293 4.73969 25.345C4.75562 25.392 4.78844 25.424 4.81 25.467C4.06281 27.44 3.77312 28.753 3.76562 28.79C3.65687 29.33 3.98031 29.862 4.48656 29.978C4.55219 29.993 4.61781 30 4.68344 30C5.11562 30 5.50469 29.679 5.59937 29.21C5.61906 29.108 8.00781 18.837 16.4528 12.832C16.8841 12.526 17.0003 11.905 16.7125 11.445C16.4247 10.985 15.8434 10.86 15.4122 11.168C10.6234 14.573 7.67406 19.176 5.93969 22.824C4.69844 18.246 5.02375 14.447 6.92594 11.519C10.6694 5.755 19.5484 4.365 24.9081 4.071C23.755 5.872 22.495 9.174 22.495 15C22.495 18.12 21.6653 20.522 20.0303 22.14C17.4091 24.731 13.1509 24.974 10.0366 24.724C9.51906 24.679 9.07 25.095 9.03062 25.646C8.99125 26.196 9.37844 26.676 9.89406 26.718C10.5175 26.769 11.1831 26.8 11.875 26.8C15.0456 26.8 18.7441 26.137 21.3044 23.606C23.3388 21.595 24.37 18.7 24.37 15.001C24.37 5.902 27.5856 3.905 27.6016 3.896C27.9916 3.687 28.1959 3.219 28.0938 2.767Z" fill="white"/>
</g>
<defs>
<clipPath id="clip0_130_911">
<rect width="30" height="32" fill="white" transform="translate(0.25)"/>
</clipPath>
</defs>
</svg>
