<svg xmlns="http://www.w3.org/2000/svg" viewBox="0 0 40 40"><path fill="#fff" d="M17.6 3.99c-1.75 0-3.18 1.52-3.18 3.4 0 1.89 1.43 3.41 3.19 3.41s3.18-1.52 3.18-3.4c0-1.89-1.42-3.41-3.18-3.41zm0 1.34c1.07 0 1.94.92 1.94 2.07 0 1.14-.87 2.06-1.93 2.06-1.07 0-1.94-.92-1.94-2.06 0-1.15.87-2.07 1.94-2.07zM6.95 11.5c-.53 0-.58.6-.59.78v18.54c.35 2.41 1.4 3.94 3.93 4.19h20.58c2.36-.55 3.54-1.68 3.79-4.2V12.17c0-.58-.38-.65-.53-.66h-.5c-.5 0-.54.56-.54.68v18.66c-.32 1.54-.8 2.2-2.44 2.5 0 0-20.18 0-20.66-.04-1.47-.5-1.96-1.2-2.06-2.85V12.3c0-.83-.67-.8-.67-.8h-.3zM26 13.62c-.92-.02-1.5.14-1.5.14-1.2.27-2.35.42-4.66 2.6-2.3 2.17-4.02 2.07-5.74 1.96-1.71-.1-3.45-1.67-3.82-2.07-.37-.4-1.03-.13-1.2.13-.17.26-.17.71.12 1.13 1.4 1.28 2.72 2.3 5.25 2.54 2.52.24 4.9-.89 6.5-2.49 1.59-1.6 2.42-1.91 3.55-2.15 2.9-.45 4.56.69 5.62 1.45 1.07 1.18 1.37.86 1.71.52.61-.79-.25-1.36-1.15-2.12A8 8 0 0 0 26 13.62zm-11.77 8c-1.3 0-2.35 1.11-2.35 2.5 0 1.38 1.05 2.5 2.35 2.5 1.29 0 2.34-1.12 2.34-2.5 0-1.39-1.05-2.5-2.34-2.5zm12.55.85c-1.71 0-3.1 1.48-3.1 3.3 0 1.83 1.39 3.3 3.1 3.3 1.7 0 3.09-1.47 3.09-3.3 0-1.82-1.39-3.3-3.1-3.3zm0 1.6c.88 0 1.6.76 1.6 1.7 0 .95-.72 1.72-1.6 1.72-.89 0-1.6-.77-1.6-1.71 0-.95.71-1.72 1.6-1.72z"/></svg>