<svg width="27" height="29" viewBox="0 0 27 29" fill="none" xmlns="http://www.w3.org/2000/svg">
<path d="M11.125 0C9.49375 0 8.225 1.35937 8.225 3.08125C8.225 4.80312 9.49375 6.1625 11.125 6.1625C12.7563 6.1625 14.025 4.80312 14.025 3.08125C14.025 1.35937 12.7563 0 11.125 0ZM11.125 1.17812C12.1219 1.17812 12.8469 2.02094 12.8469 3.08125C12.8469 4.07812 12.0584 4.98438 11.125 4.98438C10.1281 4.98438 9.40313 4.14156 9.40313 3.08125C9.40313 2.08437 10.1825 1.17812 11.125 1.17812ZM0.25 24.7406C0.25 25.9188 0.657813 26.9156 1.60938 27.7313C2.60625 28.5831 3.78438 28.5106 3.78438 28.5106H22.8156C23.595 28.5106 24.6281 28.13 25.4437 27.0606C26.2866 26.0638 26.2322 24.7044 26.2322 24.7044V7.48563C26.2322 7.05063 26.1234 6.8875 25.4891 6.8875C24.8547 6.8875 24.8003 7.15938 24.8003 7.47656V24.6953C24.7822 24.9944 24.7278 25.7828 24.0572 26.4172C23.3231 27.0425 22.6072 26.9609 22.6072 26.9609C22.6072 26.9609 4.48219 26.9609 3.57594 26.9338C3.23156 26.8703 2.66969 26.7434 2.12594 26.0275C1.61844 25.3025 1.71812 24.3962 1.71812 24.3962V7.1775C1.71812 6.71531 1.4825 6.54313 0.993125 6.54313C0.50375 6.54313 0.25 6.71531 0.25 7.12313V24.7406ZM16.5625 8.42813C15.475 8.66375 14.3875 8.80875 12.3031 10.7844C10.2188 12.7781 8.67813 12.6875 7.1375 12.5969C5.59688 12.5063 3.96563 11.0563 3.69375 10.6938C3.35844 10.3403 2.7875 10.5759 2.60625 10.8116C2.45219 11.0472 2.45219 11.455 2.715 11.8084C3.98375 12.9866 5.16188 13.8928 7.4275 14.0741C9.69312 14.2916 11.8681 13.2675 13.3181 11.8084C14.7681 10.3584 15.4931 10.0866 16.5806 9.90531C19.2087 9.48844 20.7494 10.5216 21.6556 11.1741C22.6525 12.2616 22.9244 11.9534 23.1962 11.6453C23.74 10.9294 22.9697 10.3766 22.1088 9.74219C20.2963 8.56406 18.5744 8.11094 16.5806 8.47344L16.5625 8.42813ZM7.5 15.5875C6.32188 15.5875 5.41562 16.5844 5.41562 17.8531C5.41562 19.1219 6.32188 20.1188 7.5 20.1188C8.67813 20.1188 9.58438 19.1219 9.58438 17.8531C9.58438 16.5844 8.67813 15.5875 7.5 15.5875ZM19.2812 16.3669C17.7406 16.3669 16.4719 17.7262 16.4719 19.3575C16.4719 20.9888 17.7406 22.3481 19.2812 22.3481C20.8219 22.3481 22.0906 20.9888 22.0906 19.3575C22.0906 17.7262 20.8219 16.3669 19.2812 16.3669ZM19.2812 17.8169C20.0788 17.8169 20.7313 18.5147 20.7313 19.3575C20.7313 20.2184 20.0788 20.8981 19.2812 20.8981C18.4837 20.8981 17.8312 20.2003 17.8312 19.3575C17.8312 18.4966 18.4837 17.8169 19.2812 17.8169Z" fill="white"/>
</svg>
