<svg width="27" height="31" viewBox="0 0 27 31" fill="none" xmlns="http://www.w3.org/2000/svg">
<path d="M6.28799 0C5.22504 0 5.22504 1.5831 6.28799 1.5831H12.9315V3.18731C6.12855 3.62002 0.75 9.41417 0.75 16.4854C0.75 20.4959 2.49325 24.1159 5.2463 26.5539C5.72463 26.976 5.78841 27.7254 5.35259 28.1897L3.82194 29.7412C3.07787 30.4272 4.18334 31.4931 4.85301 30.7438L6.85136 28.7069C7.20214 28.3692 7.72298 28.2847 8.1588 28.4958C9.87736 29.3397 11.7669 29.784 13.6841 29.795C15.6013 29.8059 17.4959 29.3833 19.2242 28.5591C19.6493 28.348 20.1808 28.4325 20.521 28.7702L22.4555 30.7438C23.1358 31.377 24.1138 30.4272 23.4972 29.7412L22.0516 28.2636C21.6052 27.8098 21.669 27.0605 22.1579 26.6277C23.6084 25.3585 24.7686 23.7959 25.5606 22.0447C26.3526 20.2936 26.7581 18.3944 26.7499 16.4748C26.7499 9.40362 21.3394 3.59891 14.5259 3.18731V1.5831H21.1694C22.2323 1.5831 22.2323 0 21.1694 0H6.28799ZM2.18499 16.4748C2.18499 9.94187 7.36158 4.65431 13.7499 4.65431C20.1277 4.65431 25.3043 9.94187 25.3043 16.4748C25.3043 23.0183 20.1277 28.3164 13.7499 28.3164C7.37221 28.3164 2.18499 23.0183 2.18499 16.4748ZM12.9421 8.37988C12.9421 7.28226 14.6003 7.28226 14.6003 8.37988V17.0131C14.6003 17.237 14.5107 17.4517 14.3512 17.6101C14.1918 17.7684 13.9755 17.8574 13.7499 17.8574C13.5375 17.8574 13.3336 17.7743 13.1824 17.6262C13.0312 17.478 12.9449 17.2767 12.9421 17.0658V8.37988ZM7.96746 10.9973C8.27475 10.9973 8.56945 10.8761 8.78673 10.6603C9.00402 10.4446 9.12608 10.152 9.12608 9.84688C9.12608 9.54178 9.00402 9.24918 8.78673 9.03344C8.56945 8.8177 8.27475 8.6965 7.96746 8.6965C7.68069 8.72386 7.41447 8.85633 7.22075 9.06805C7.02702 9.27977 6.91969 9.55556 6.91969 9.84161C6.91969 10.1277 7.02702 10.4034 7.22075 10.6152C7.41447 10.8269 7.68069 10.9593 7.96746 10.9867V10.9973ZM19.5218 10.9973C19.8291 10.9973 20.1238 10.8761 20.3411 10.6603C20.5583 10.4446 20.6804 10.152 20.6804 9.84688C20.6804 9.54178 20.5583 9.24918 20.3411 9.03344C20.1238 8.8177 19.8291 8.6965 19.5218 8.6965C19.235 8.72386 18.9688 8.85633 18.7751 9.06805C18.5813 9.27977 18.474 9.55556 18.474 9.84161C18.474 10.1277 18.5813 10.4034 18.7751 10.6152C18.9688 10.8269 19.235 10.9593 19.5218 10.9867V10.9973ZM9.12608 23.5882C9.12608 25.1185 6.80884 25.1185 6.80884 23.5882C6.80884 22.0579 9.12608 22.0579 9.12608 23.5882ZM13.7499 27.0288C13.9107 27.0441 14.0729 27.0259 14.2262 26.9754C14.3794 26.9248 14.5203 26.843 14.6399 26.7352C14.7594 26.6273 14.8549 26.4959 14.9203 26.3493C14.9856 26.2026 15.0194 26.044 15.0194 25.8837C15.0194 25.7233 14.9856 25.5648 14.9203 25.4181C14.8549 25.2715 14.7594 25.14 14.6399 25.0322C14.5203 24.9244 14.3794 24.8426 14.2262 24.792C14.0729 24.7414 13.9107 24.7232 13.7499 24.7386C13.4632 24.7659 13.1969 24.8984 13.0032 25.1101C12.8095 25.3219 12.7022 25.5976 12.7022 25.8837C12.7022 26.1697 12.8095 26.4455 13.0032 26.6572C13.1969 26.869 13.4632 27.0014 13.7499 27.0288ZM5.66085 16.6437C5.6763 16.8033 5.65797 16.9643 5.60704 17.1165C5.55611 17.2687 5.47371 17.4086 5.36511 17.5273C5.25651 17.646 5.12413 17.7408 4.97644 17.8057C4.82876 17.8706 4.66904 17.9041 4.50755 17.9041C4.34605 17.9041 4.18633 17.8706 4.03865 17.8057C3.89097 17.7408 3.75858 17.646 3.64998 17.5273C3.54138 17.4086 3.45898 17.2687 3.40805 17.1165C3.35712 16.9643 3.33879 16.8033 3.35424 16.6437C3.3818 16.3589 3.51522 16.0946 3.72845 15.9023C3.94169 15.7099 4.21945 15.6033 4.50755 15.6033C4.79564 15.6033 5.0734 15.7099 5.28664 15.9023C5.49987 16.0946 5.63329 16.3589 5.66085 16.6437ZM22.987 17.794C23.1478 17.8094 23.31 17.7912 23.4632 17.7406C23.6165 17.6901 23.7574 17.6082 23.877 17.5004C23.9965 17.3926 24.092 17.2611 24.1574 17.1145C24.2227 16.9679 24.2565 16.8093 24.2565 16.6489C24.2565 16.4886 24.2227 16.33 24.1574 16.1834C24.092 16.0367 23.9965 15.9053 23.877 15.7975C23.7574 15.6896 23.6165 15.6078 23.4632 15.5573C23.31 15.5067 23.1478 15.4885 22.987 15.5038C22.7002 15.5312 22.434 15.6637 22.2403 15.8754C22.0466 16.0871 21.9392 16.3629 21.9392 16.6489C21.9392 16.935 22.0466 17.2108 22.2403 17.4225C22.434 17.6342 22.7002 17.7667 22.987 17.794ZM20.6804 23.5987C20.6804 25.1185 18.3632 25.1185 18.3632 23.5882C18.3632 22.0579 20.6804 22.0579 20.6804 23.5882V23.5987Z" fill="white"/>
</svg>
