<svg xmlns="http://www.w3.org/2000/svg" viewBox="0 0 40 40"><path fill="#fff" d="M12.75 5c-1 0-1 1.5 0 1.5H19v1.52c-6.4.41-11.46 5.9-11.46 12.6 0 3.8 1.64 7.23 4.23 9.54.45.4.51 1.11.1 1.55l-1.44 1.47c-.7.65.34 1.66.97.95l1.88-1.93c.33-.32.82-.4 1.23-.2a11.88 11.88 0 0 0 10.41.06c.4-.2.9-.12 1.22.2l1.82 1.87c.64.6 1.56-.3.98-.95l-1.36-1.4c-.42-.43-.36-1.14.1-1.55A12.75 12.75 0 0 0 32 20.61c0-6.7-5.09-12.2-11.5-12.59V6.5h6.25c1 0 1-1.5 0-1.5h-14ZM8.89 20.61c0-6.19 4.87-11.2 10.88-11.2 6 0 10.87 5.01 10.87 11.2 0 6.2-4.87 11.22-10.87 11.22-6 0-10.88-5.02-10.88-11.22Zm10.12-7.67c0-1.04 1.56-1.04 1.56 0v8.18a.8.8 0 0 1-.8.8.76.76 0 0 1-.76-.75v-8.23Zm-4.68 2.48a1.09 1.09 0 1 0 0-2.18 1.09 1.09 0 0 0 0 2.17v.01Zm10.87 0a1.09 1.09 0 1 0 0-2.18 1.09 1.09 0 0 0 0 2.17v.01Zm-9.78 11.93c0 1.45-2.18 1.45-2.18 0s2.18-1.45 2.18 0Zm4.35 3.26a1.1 1.1 0 1 0 .2-2.17 1.1 1.1 0 0 0-.2 2.17Zm-7.61-9.84a1.1 1.1 0 1 1-2.17.2 1.1 1.1 0 0 1 2.17-.2Zm16.3 1.09a1.1 1.1 0 1 0 .2-2.17 1.1 1.1 0 0 0-.2 2.17Zm-2.17 5.5c0 1.44-2.18 1.44-2.18-.01s2.18-1.45 2.18 0v.01Z"/></svg>