<svg xmlns="http://www.w3.org/2000/svg" viewBox="-9 -6 68 68"><circle cx="25" cy="28" r="25" fill="#68B738"/><path d="M35.2 0H35c-.32.19-.58.47-.74.82a8.03 8.03 0 0 0-.67 1.76.84.84 0 0 1-.76.69 3.77 3.77 0 0 0-2.69 1.95 14.2 14.2 0 0 0-.95 2.06c-.73 1.9-1.29 3.85-1.98 5.77-.32.87-.34.87-1.32.87-1.16 0-1.08-.18-1.1 1.1 0 .41.13.62.56.6.13 0 .33-.07.38.1.06.18-.12.26-.22.36a4.63 4.63 0 0 1-2.23 1.26c-.98.26-1.97.47-2.92.79-2.45.82-4.7 1.96-6.46 3.9a14.44 14.44 0 0 0-2.44 4.04c-1.89 4.46-2.8 9.15-3.51 13.88a97.06 97.06 0 0 0-.75 6.7C7.1 47.75 7 48.88 7 50h17.14a1.13 1.13 0 0 0-.12-.66 2.58 2.58 0 0 0-1.97-1.58c-.36-.08-.4-.2-.18-.48.36-.48.64-1.02.82-1.6.84-2.47 1.16-5.06 1.57-7.62a15.5 15.5 0 0 1 1.77-5.59 11.13 11.13 0 0 1 2.87-3.28c.43-.32.45-.32.52.23.05.36.06.74.09 1.11a48.17 48.17 0 0 1-.1 7.31 31.87 31.87 0 0 0-.07 5.67A38.83 38.83 0 0 0 30.5 50h6.84a2.79 2.79 0 0 0-2.18-2.29 4.62 4.62 0 0 0-1.93.1c-.31.08-.44 0-.46-.33a29.11 29.11 0 0 1 .51-8.15 91.8 91.8 0 0 0 1.57-9.38 9.16 9.16 0 0 1 1.18-3.6c.6-1.1 1.14-2.23 1.75-3.33a3.03 3.03 0 0 0 .21-2.67c-.14-.37-.27-.74-.44-1.1-.52-1-1.03-2-1.5-3-.25-.52-.2-.59.36-.6.84 0 .84 0 .86-.85v-.34c0-.35-.14-.55-.52-.51h-.78c-.35 0-.46-.15-.37-.52a3.22 3.22 0 0 1 2.64-2.28 11.3 11.3 0 0 1 3.4.22.51.51 0 0 0 .65-.33c.2-.51.43-1.03.66-1.55a.52.52 0 0 0-.05-.58c-1.65-2.1-3.43-4.05-5.87-5.3a.77.77 0 0 1-.45-.58A10.12 10.12 0 0 0 35.93.9a1.8 1.8 0 0 0-.73-.9Z"/></svg>
